<?xml version="1.0" encoding="utf-8"?>
<svg viewBox="-118.735 -158.643 604.079 712.956" width="604.079" height="712.956" xmlns="http://www.w3.org/2000/svg">
  <defs>
    <clipPath id="clip0">
      <rect width="441.203" height="480.355" fill="white" transform="translate(102.044 42.7139) rotate(22.2248)" />
    </clipPath>
  </defs>
  <path d="M 425.437 375.402 C 422.391 374.223 420.944 370.987 422.181 368.12 C 422.841 366.591 424.218 365.414 425.848 364.93 C 428.09 364.311 480.615 347.833 472.707 299.351 C 460.12 224.378 405.278 199.369 404.494 198.991 C 401.571 197.711 400.314 194.4 401.659 191.65 C 403.004 188.899 406.511 187.728 409.434 189.008 C 412.006 190.003 470.743 216.965 484.329 297.678 C 494.109 355.73 430.049 375.328 429.411 375.527 C 428.066 375.898 426.655 375.873 425.437 375.402 Z" fill="#593A26" />
  <path d="M 403.447 372.863 C 394.773 368.847 388.261 361.635 385.421 352.985 C 382.769 344.261 385.251 334.883 391.898 328.364 C 398.881 321.974 409.497 320.583 418.102 324.939 C 423.156 327.553 426.09 332.721 425.572 338.093 C 427.491 335.096 430.996 331.687 434.226 333.45 C 437.456 335.212 436.516 338.661 435.203 341.159 C 433.421 343.476 432.362 346.292 432.284 349.194 C 433.5 357.436 446.412 366.318 434.565 373.464 C 424.702 378.007 413.138 377.785 403.447 372.863 Z" fill="#593A26" />
  <path d="M 136.527 533.168 L 135.09 532.612 C 130.631 529.99 129.238 524.522 131.924 520.333 C 132.117 519.885 167.94 457.411 173.173 416.414 C 178.59 373.696 208.077 250.215 207.955 249.943 C 206.422 245.168 209.371 240.184 214.419 238.851 C 219.466 237.517 224.761 240.238 226.225 244.987 C 226.714 246.446 197.946 372.147 192.147 418.527 C 186.49 463.467 149.468 527.792 148.297 529.58 C 145.805 533.321 140.839 534.836 136.527 533.168 Z" fill="#593A26" />
  <path d="M 154.453 517.678 C 162.153 520.509 169.158 524.772 175.123 530.185 C 183.33 538.313 187.082 550.115 185.422 553.244 C 182.222 559.399 118.252 537.385 121.497 528.068 C 124.741 518.751 142.708 510.916 142.708 510.916 L 154.453 517.678 Z" fill="#593A26" />
  <path d="M -8.46 477.074 C -12.516 475.504 -14.876 471.464 -14.225 467.397 C -13.873 465.3 3.689 394.433 29.993 356.882 C 57.268 317.993 127.964 207.372 129.339 206.563 C 133.668 203.845 139.518 204.917 142.405 209.012 C 145.293 213.108 144.172 218.631 139.843 221.349 C 139.748 221.387 139.721 221.451 139.625 221.488 C 139.625 221.488 70.712 331.087 45.424 366.649 C 21.379 400.979 4.142 469.812 4.277 469.865 C 3.459 474.686 -1.443 478.001 -6.521 477.154 C -6.589 477.127 -6.657 477.101 -6.752 477.139 C -7.308 477.147 -7.931 477.129 -8.46 477.074 Z" fill="#593A26" />
  <path d="M -102.127 168.211 C -103.144 167.818 -104.05 167.167 -104.682 166.246 C -105.225 166.036 -141.514 113.684 -95.28 78.986 C -31.58 31.138 31.192 47.611 33.813 48.325 C 36.84 49.195 38.584 52.124 37.66 54.997 C 36.737 57.87 33.647 59.529 30.62 58.658 C 30.077 58.448 -29.261 43.003 -88.304 87.394 C -126.413 115.92 -96.625 158.396 -95.334 160.172 C -93.627 162.636 -94.254 165.924 -96.814 167.638 C -98.375 168.686 -100.431 168.867 -102.127 168.211 Z" fill="#593A26" />
  <g clip-path="url(#clip0)" transform="matrix(1, 0, 0, 1, 39.743179, -274.138306)">
    <path d="M394.476 493.268L386.508 490.012C386.484 482.554 385.609 475.091 384.073 467.785C375.392 426.397 368.925 400.468 378.084 359.262C384.192 333.249 370.525 306.775 345.89 296.709L158.454 220.123C133.819 210.057 105.494 219.459 91.6671 242.233C69.7155 278.211 46.8513 292.413 11.4682 315.54C5.18243 319.649 -0.595278 324.395 -5.90808 329.672L-13.8763 326.416L-35.1899 378.579C-39.8568 390.627 -42.3738 403.468 -42.6172 416.382C-43.2181 455.433 -23.2115 491.861 10.0813 512.056L20.5166 518.461C87.1023 558.852 159.547 588.453 235.366 606.247L247.373 609.013C285.282 617.91 325.074 605.917 351.918 577.589C360.788 568.199 367.983 557.27 373.089 545.401L394.476 493.268Z" fill="#99603B" />
    <path d="M297.341 202.989C316.317 210.742 338.007 201.59 345.789 182.546C353.57 163.502 344.495 141.779 325.519 134.026C306.544 126.272 284.853 135.425 277.072 154.469C269.291 173.512 278.366 195.236 297.341 202.989Z" fill="#C8B283" />
    <path d="M407.433 241.295L153.254 137.438C129.057 127.552 101.329 139.252 91.4064 163.536C83.8522 182.024 86.2679 203.045 97.7188 219.281L127.304 261.078L339.302 347.7L389.618 338.551C409.163 334.979 425.608 321.664 433.162 303.176C443.084 278.892 431.6 251.255 407.433 241.295Z" fill="#E9CD95" />
    <path d="M360.605 260.688L173.17 184.102C148.607 174.066 120.312 183.394 106.412 206.139C84.4307 242.19 61.5964 256.318 26.1833 279.519C-4.25773 299.528 -22.8303 333.291 -23.4823 369.753C-24.0832 408.804 -4.07657 445.231 29.2163 465.427L39.6515 471.831C106.237 512.223 178.682 541.823 254.501 559.618L266.508 562.384C304.417 571.281 344.208 559.287 371.053 530.959C396.092 504.547 406.507 467.366 398.861 431.794C390.18 390.406 383.713 364.476 392.902 323.198C398.907 297.228 385.241 270.754 360.605 260.688Z" fill="#AF6C45" />
    <path d="M258.742 187.217C277.717 194.97 299.408 185.818 307.189 166.774C314.97 147.73 305.895 126.007 286.92 118.254C267.944 110.5 246.254 119.653 238.472 138.697C230.691 157.74 239.766 179.464 258.742 187.217Z" fill="#E9CD95" />
    <path fill-rule="evenodd" clip-rule="evenodd" d="M97.3755 422.215C111.411 427.95 124.014 429.675 125.513 426.006C127.012 422.338 116.777 414.817 102.741 409.082C88.7056 403.347 76.0294 401.592 74.5606 405.187C73.0917 408.782 83.3398 416.48 97.3755 422.215Z" fill="#EE8289" />
    <path fill-rule="evenodd" clip-rule="evenodd" d="M249.068 484.196C263.177 489.961 275.78 491.686 277.279 488.018C278.778 484.349 268.543 476.828 254.434 471.064C240.325 465.299 227.795 463.604 226.326 467.198C224.857 470.793 235.032 478.461 249.068 484.196Z" fill="#EE8289" />
    <path fill-rule="evenodd" clip-rule="evenodd" d="M163.267 438.009C161.544 435.336 159.422 433.014 156.901 431.042C150.01 427.028 146.548 437.171 147.248 442.765C149.678 458.74 164.637 469.732 180.608 467.183C185.338 466.462 189.771 464.591 193.596 461.702C198.013 458.199 202.661 448.284 194.915 446.574C191.734 446.216 188.592 446.388 185.491 447.09C177.18 447.803 168.993 444.458 163.56 438.129L163.267 438.009Z" fill="#590D32" />
    <path d="M240.942 381.737C231.603 372.441 220.427 365.135 208.129 360.367C196.131 354.865 182.963 352.225 169.74 352.644L180.082 327.333L251.284 356.426L240.942 381.737Z" fill="#343434" stroke="#343434" stroke-width="2.75" stroke-miterlimit="10" />
    <path d="M87.6539 391.105C16.9636 362.221 31.0527 327.739 45.9513 291.277C61.7791 252.54 78.0578 243.181 138.075 267.704C196.557 291.6 197.104 325.127 187.332 349.044C173.303 383.379 152.862 417.749 87.6539 391.105Z" fill="#343434" />
    <path d="M136.602 271.299C173.519 286.383 198.712 310.118 183.574 347.168C168.435 384.217 148.864 411.237 89.3588 386.923C22.5429 359.622 34.8034 329.615 49.9418 292.566C65.0802 255.516 78.9244 247.732 136.602 271.299ZM139.78 263.522C108.053 250.559 89.2892 247.001 74.9926 251.091C58.8275 255.787 50.2699 269.841 42.3859 289.136C27.3975 325.819 11.8094 363.969 86.3742 394.436C152.167 421.318 175.628 388.954 191.515 350.07C202.007 324.392 201.599 288.439 139.973 263.259L139.78 263.522Z" fill="#343434" />
    <path d="M179.964 301.943C174.525 294.584 167.829 288.423 160.065 283.624C121.482 301.848 80.9275 315.499 39.1544 324.201C36.8899 333.292 37.7461 342.888 41.5017 351.443C89.8168 346.357 140.304 330.942 179.964 301.943Z" fill="#B1B1B1" />
    <path d="M272.533 466.646C207.252 439.972 216.758 401.049 230.757 366.788C240.529 342.871 264.472 319.35 322.954 343.245C382.971 367.768 388.039 385.849 372.211 424.586C357.312 461.048 343.223 495.53 272.533 466.646Z" fill="#343434" />
    <path d="M321.483 346.841C379.161 370.408 383.592 385.66 368.454 422.709C353.316 459.759 341.055 489.765 274.239 462.464C215.099 438.3 219.611 405.127 234.749 368.078C249.887 331.028 284.566 331.756 321.483 346.841ZM324.66 339.064C262.962 313.854 237.492 339.234 227 364.912C211.112 403.795 205.488 443.448 271.062 470.241C345.626 500.708 361.184 462.631 376.203 425.875C384.207 406.287 387.793 390.202 379.569 375.882C372.227 362.951 356.34 352.351 324.687 339.417L324.66 339.064Z" fill="#343434" />
    <path d="M352.123 361.842C344.751 357.545 337.096 353.732 329.231 350.433C301.966 379.788 264.952 398.139 225.2 402.102C224.079 411.318 225.803 420.669 230.031 428.904C279.475 428.987 325.543 403.719 352.123 361.842Z" fill="#B1B1B1" />
  </g>
</svg>