<svg width="95" height="103" viewBox="0 0 95 103" fill="none" xmlns="http://www.w3.org/2000/svg">
<path d="M94.3799 65.3613H92.5387C91.9305 63.9077 91.1703 62.4878 90.2413 61.1695C85.1059 53.6986 81.7106 49.1011 80.2916 40.2274C79.3794 34.6157 74.5312 30.4746 68.8553 30.4746H25.526C19.8333 30.4746 15.002 34.5988 14.0898 40.2274C12.654 49.1011 9.27543 53.6986 4.1401 61.1695C3.2279 62.5047 2.46777 63.9077 1.84274 65.3613H0.00146484V77.3789C0.0521424 80.1002 0.575779 82.8384 1.60622 85.4414C4.62998 93.1996 11.539 98.7774 19.7657 100.079L22.3671 100.485C38.8204 103.104 55.5779 103.104 72.0143 100.485L74.6157 100.079C82.8423 98.7774 89.7514 93.1996 92.7751 85.4414C93.7887 82.8384 94.3124 80.1002 94.3799 77.3789V65.3613Z" fill="#99603B"/>
<path d="M51.6416 15.8882C56.0264 15.8882 59.5811 12.3316 59.5811 7.94415C59.5811 3.55673 56.0264 0 51.6416 0C47.2567 0 43.7021 3.55673 43.7021 7.94415C43.7021 12.3316 47.2567 15.8882 51.6416 15.8882Z" fill="#C8B283"/>
<path d="M76.5582 14.5529H17.8229C12.2484 14.5529 7.72119 19.0827 7.72119 24.6605C7.72119 28.92 9.90033 32.8752 13.4815 35.157L22.7049 41.0221H71.6594L80.8827 35.157C84.4639 32.8752 86.643 28.92 86.643 24.6605C86.6599 19.0827 82.1327 14.5529 76.5582 14.5529Z" fill="#E9CD95"/>
<path d="M68.8553 22.1758H25.526C19.8502 22.1758 15.002 26.3 14.0898 31.8947C12.654 40.7853 9.2755 45.3828 4.12329 52.8706C-0.285649 59.2766 -1.21477 67.4405 1.60627 74.6916C4.63003 82.4498 11.5391 88.0276 19.7657 89.3291L22.3672 89.7347C38.8204 92.3546 55.5778 92.3546 72.0142 89.7347L74.6156 89.3291C82.8422 88.0276 89.7513 82.4498 92.775 74.6916C95.5961 67.4574 94.6501 59.2766 90.2581 52.8706C85.1227 45.3828 81.7274 40.8022 80.2915 31.8947C79.3793 26.2831 74.5311 22.1758 68.8553 22.1758Z" fill="#AF6C45"/>
<path d="M42.7398 15.8882C47.1246 15.8882 50.6793 12.3316 50.6793 7.94415C50.6793 3.55673 47.1246 0 42.7398 0C38.3549 0 34.8003 3.55673 34.8003 7.94415C34.8003 12.3316 38.3549 15.8882 42.7398 15.8882Z" fill="#E9CD95"/>
<path fill-rule="evenodd" clip-rule="evenodd" d="M49.7334 76.2134C50.3753 76.5684 50.9158 76.9741 51.5408 77.0586C53.1794 77.2952 53.078 75.0303 52.5037 73.9992C51.3719 71.954 49.2773 70.9568 47.1995 70.9906C45.1217 70.9568 43.027 71.954 41.8952 73.9992C41.3209 75.0303 41.2027 77.3121 42.8581 77.0586C43.4831 76.9741 44.0237 76.5684 44.6656 76.2134C45.4765 75.7571 46.3379 75.5543 47.2163 75.5881C48.061 75.5543 48.9225 75.7571 49.7334 76.2134Z" fill="#590D32"/>
<path fill-rule="evenodd" clip-rule="evenodd" d="M27.8402 64.5171C27.401 64.2298 27.2659 63.6551 27.5362 63.2156C27.8234 62.7762 28.3977 62.641 28.8369 62.9114C28.8538 62.9283 34.8338 66.6637 34.952 68.5568C35.1041 70.7034 28.4315 72.9345 28.3977 72.9514C27.9078 73.1204 27.3673 72.85 27.1984 72.3598C27.0294 71.8696 27.2997 71.3288 27.7896 71.1597C27.8065 71.1597 33.0939 69.385 33.0432 68.692C33.0094 67.7624 27.8402 64.534 27.8402 64.5171Z" fill="#590D32"/>
<path fill-rule="evenodd" clip-rule="evenodd" d="M65.5276 62.9111C65.9668 62.6237 66.5581 62.7589 66.8284 63.2153C67.1155 63.6547 66.9804 64.2464 66.5243 64.5168C66.5074 64.5337 61.3552 67.7621 61.2876 68.6748C61.2369 69.3509 66.5243 71.1256 66.5412 71.1425C67.0311 71.3115 67.3013 71.8525 67.1324 72.3426C66.9635 72.8328 66.4229 73.1032 65.9331 72.9342C65.9162 72.9342 59.2436 70.6862 59.3956 68.5396C59.5477 66.6634 65.5107 62.928 65.5276 62.9111Z" fill="#590D32"/>
<path fill-rule="evenodd" clip-rule="evenodd" d="M29.8169 78.4279C33.0265 78.4279 35.6617 77.7518 35.6617 76.9236C35.6617 76.0954 33.0434 75.4193 29.8169 75.4193C26.6074 75.4193 23.9722 76.0954 23.9722 76.9236C23.9722 77.7518 26.5905 78.4279 29.8169 78.4279Z" fill="#EE8289"/>
<path fill-rule="evenodd" clip-rule="evenodd" d="M64.5651 78.4279C67.7746 78.4279 70.4098 77.7518 70.4098 76.9236C70.4098 76.0954 67.7915 75.4193 64.5651 75.4193C61.3555 75.4193 58.7202 76.0954 58.7202 76.9236C58.7202 77.7518 61.3555 78.4279 64.5651 78.4279Z" fill="#EE8289"/>
</svg>
