<svg width="125" height="157" viewBox="0 0 125 157" fill="none" xmlns="http://www.w3.org/2000/svg">
<path d="M107.104 37.0967H34.9891C28.1429 37.0967 22.5833 42.6726 22.5833 49.5387C22.5833 54.769 25.2482 59.6536 29.6592 62.4646L40.9852 69.6994H101.107L112.433 62.4646C116.844 59.6536 119.509 54.769 119.509 49.5387C119.509 42.6726 113.95 37.0967 107.104 37.0967Z" fill="#C8B283"/>
<path d="M85.3245 30.76C85.3245 36.1516 80.9595 40.5293 75.5836 40.5293C70.2078 40.5293 65.8428 36.1516 65.8428 30.76C65.8428 25.3685 70.2078 20.9907 75.5836 20.9907C80.9595 20.9907 85.3245 25.3685 85.3245 30.76Z" fill="#C8B283"/>
<path d="M102.233 82.0942C109.722 77.7856 111.836 63.1547 111.882 62.8321C111.744 61.4497 111.698 60.0211 111.698 58.4774C111.698 51.473 104.645 46.4731 97.2247 46.4731H44.0176C37.4701 46.4731 31.5199 51.5652 30.3942 58.4774C28.7171 68.8688 24.8805 68.3158 19.0681 76.1727L22.5831 82.0942C22.5831 82.0942 94.6746 86.4259 102.233 82.0942Z" fill="#99603B"/>
<path d="M78.2255 80.1133C58.4222 80.1133 32.3011 78.7309 24.8576 78.3162L23.7778 76.4959C24.8806 75.2057 25.9144 74.1919 26.9023 73.2241C30.1186 70.0676 32.8984 67.3257 34.2309 59.1001C35.035 54.1233 39.2391 50.3677 44.0177 50.3677H97.2248C102.348 50.3677 107.816 53.6164 107.816 58.478C107.816 60.1831 107.862 61.5194 107.977 62.7406C107.172 67.8556 104.485 76.3346 100.326 78.7309C99.8438 78.9383 96.4896 80.1133 78.2255 80.1133Z" fill="#4D4D4F"/>
<path d="M120.405 81.2642C114.271 72.3244 112.41 67.7853 111.882 62.8315C111.836 63.1541 109.723 77.785 102.233 82.0937C94.6747 86.4484 22.5832 82.0937 22.5832 82.0937L19.0682 76.1722C18.7696 76.5639 18.4709 76.9786 18.1723 77.4164C12.7734 85.2963 11.6018 95.3651 15.0708 104.259C18.7925 113.821 27.2698 120.664 37.3783 122.277L40.5716 122.784C60.7655 126.009 81.35 126.009 101.544 122.784L104.737 122.277L111.905 140.226C124.609 122.507 129.342 94.2822 120.405 81.2642Z" fill="#99603B"/>
<path d="M74.389 80.0902C89.0944 80.0902 101.016 68.1343 101.016 53.3859C101.016 38.6376 89.0944 26.6816 74.389 26.6816C59.6836 26.6816 47.7625 38.6376 47.7625 53.3859C47.7625 68.1343 59.6836 80.0902 74.389 80.0902Z" fill="#F6C840"/>
<path d="M74.4348 60.437C65.3602 60.437 58.8357 62.2342 58.8357 62.2342V65.2295C58.8357 65.2295 65.3602 63.4323 74.4348 63.4323C83.5095 63.4323 90.034 65.2295 90.034 65.2295V62.2342C90.057 62.2342 83.5095 60.437 74.4348 60.437Z" fill="#FFF8D1"/>
<path d="M92.8598 44.2159C92.0098 44.2159 91.2976 44.9071 91.2976 45.7827C91.2976 46.2665 91.5273 46.7043 91.8949 47.0039L86.1974 55.3907L84.7271 45.6214C85.5771 45.4832 86.2204 44.7689 86.2204 43.8703C86.2204 42.9026 85.4393 42.0962 84.4514 42.0962C83.4865 42.0962 82.6825 42.8796 82.6825 43.8703C82.6825 44.5154 83.05 45.0915 83.5784 45.391L78.8918 53.5705L75.0092 42.2344C75.7214 41.981 76.2498 41.3128 76.2498 40.5063C76.2498 39.4926 75.4228 38.6631 74.4119 38.6631C73.4011 38.6631 72.574 39.4926 72.574 40.5063C72.574 41.3128 73.1024 41.981 73.8146 42.2344L69.932 53.5705L65.2454 45.391C65.7738 45.0915 66.1414 44.5154 66.1414 43.8703C66.1414 42.9026 65.3603 42.0962 64.3724 42.0962C63.4075 42.0962 62.6034 42.8796 62.6034 43.8703C62.6034 44.7459 63.2467 45.4832 64.0967 45.6214L62.6264 55.3907L56.9749 47.0039C57.3424 46.7274 57.5722 46.2896 57.5722 45.7827C57.5722 44.9302 56.883 44.2159 56.01 44.2159C55.1599 44.2159 54.4478 44.9071 54.4478 45.7827C54.4478 46.6352 55.137 47.3495 56.01 47.3495C56.1708 47.3495 56.3316 47.3264 56.4924 47.2573L57.4803 50.8056C58.3763 54.0543 58.8357 57.3953 58.8357 60.7592V60.8053C58.8357 60.8053 65.3603 59.0081 74.4349 59.0081C83.5095 59.0081 90.034 60.8053 90.034 60.8053V60.7592C90.034 57.3953 90.4935 54.0543 91.3895 50.8056L92.3774 47.2573C92.5382 47.3034 92.676 47.3495 92.8598 47.3495C93.7098 47.3495 94.422 46.6582 94.422 45.7827C94.422 44.9302 93.7328 44.2159 92.8598 44.2159Z" fill="#FFF8D1"/>
<path d="M35.3797 53.4086C50.0851 53.4086 62.0062 41.4527 62.0062 26.7043C62.0062 11.9559 50.0851 0 35.3797 0C20.6743 0 8.75317 11.9559 8.75317 26.7043C8.75317 41.4527 20.6743 53.4086 35.3797 53.4086Z" fill="#F6C840"/>
<path d="M35.4256 33.7329C26.351 33.7329 19.8264 35.5301 19.8264 35.5301V38.5254C19.8264 38.5254 26.351 36.7282 35.4256 36.7282C44.5002 36.7282 51.0247 38.5254 51.0247 38.5254V35.5301C51.0477 35.5531 44.5232 33.7329 35.4256 33.7329Z" fill="#FFF8D1"/>
<path d="M53.8735 17.5118C53.0235 17.5118 52.3113 18.203 52.3113 19.0786C52.3113 19.5624 52.541 20.0002 52.9086 20.2998L47.2111 28.6866L45.7408 18.9173C46.5908 18.7791 47.2341 18.0648 47.2341 17.1662C47.2341 16.1985 46.453 15.3921 45.4651 15.3921C44.5002 15.3921 43.6962 16.1754 43.6962 17.1662C43.6962 17.8113 44.0637 18.3874 44.5921 18.6869L39.9055 26.8664L36.0229 15.5303C36.7351 15.2769 37.2635 14.6087 37.2635 13.8022C37.2635 12.7885 36.4365 11.959 35.4256 11.959C34.4148 11.959 33.5877 12.7885 33.5877 13.8022C33.5877 14.6087 34.1161 15.2769 34.8283 15.5303L30.9457 26.8664L26.2591 18.6869C26.7875 18.3874 27.1551 17.8113 27.1551 17.1662C27.1551 16.1985 26.374 15.3921 25.3861 15.3921C24.4212 15.3921 23.6171 16.1754 23.6171 17.1662C23.6171 18.0418 24.2604 18.7791 25.1104 18.9173L23.6401 28.6866L17.9656 20.2998C18.3332 20.0233 18.5629 19.5855 18.5629 19.0786C18.5629 18.2261 17.8737 17.5118 17.0007 17.5118C16.1507 17.5118 15.4385 18.203 15.4385 19.0786C15.4385 19.9311 16.1277 20.6454 17.0007 20.6454C17.1615 20.6454 17.3223 20.6223 17.4831 20.5532L18.471 24.1015C19.367 27.3502 19.8265 30.6912 19.8265 34.0551V34.1012C19.8265 34.1012 26.351 32.304 35.4256 32.304C44.5002 32.304 51.0248 34.1012 51.0248 34.1012V34.0551C51.0248 30.6912 51.4842 27.3502 52.3802 24.1015L53.3681 20.5532C53.5289 20.5993 53.6667 20.6454 53.8505 20.6454C54.7006 20.6454 55.4128 19.9541 55.4128 19.0786C55.4128 18.2261 54.7235 17.5118 53.8735 17.5118Z" fill="#FFF8D1"/>
<path d="M115.879 110.482H113.628C112.87 108.685 111.928 106.957 110.825 105.321C104.507 96.1274 100.349 85.6669 98.6032 74.7225C97.4775 67.8103 91.5503 62.7183 84.5663 62.7183H31.3591C24.3751 62.7183 18.4249 67.8103 17.3222 74.7225C15.5532 85.6439 11.395 96.1044 5.10017 105.321C3.97445 106.957 3.03253 108.685 2.29737 110.482H0V126.15C0.0689212 129.514 0.712185 132.854 1.95277 136.08C5.67451 145.642 14.1518 152.485 24.2602 154.098L27.4536 154.605C47.6475 157.831 68.2319 157.831 88.4258 154.605L91.6192 154.098C101.705 152.485 110.205 145.642 113.927 136.08C115.167 132.878 115.811 129.514 115.879 126.15V110.482Z" fill="#99603B"/>
<path d="M94.0086 54.7686H21.8711C15.025 54.7686 9.46533 60.3444 9.46533 67.2106C9.46533 72.4408 12.1303 77.3255 16.5412 80.1365L27.8673 87.3713H87.9895L99.3155 80.1365C103.726 77.3255 106.391 72.4408 106.391 67.2106C106.414 60.3444 100.855 54.7686 94.0086 54.7686Z" fill="#E9CD95"/>
<path d="M84.5434 64.145H31.3362C24.3522 64.145 18.402 69.237 17.2993 76.1493C15.5303 87.0706 11.3721 85.8955 5.07728 95.1119C-0.321542 102.992 -1.4932 113.061 1.97583 121.954C5.69757 131.516 14.1749 138.359 24.2833 139.972L27.4767 140.479C47.6706 143.705 68.255 143.705 88.4489 140.479L91.6423 139.972C101.728 138.359 110.228 131.516 113.95 121.954C117.419 113.038 116.247 102.992 110.848 95.1119C104.531 85.9186 100.372 87.0937 98.6263 76.1493C97.4776 69.237 91.5274 64.145 84.5434 64.145Z" fill="#AF6C45"/>
<path d="M59.3623 55.3566C63.1663 51.5415 63.1663 45.356 59.3623 41.5409C55.5583 37.7257 49.3907 37.7257 45.5867 41.5409C41.7827 45.356 41.7827 51.5415 45.5867 55.3566C49.3907 59.1717 55.5583 59.1717 59.3623 55.3566Z" fill="#E9CD95"/>
<path fill-rule="evenodd" clip-rule="evenodd" d="M54.057 122.23C53.184 121.747 52.4489 121.194 51.5988 121.078C49.3704 120.756 49.5082 123.843 50.2893 125.249C51.8286 128.037 54.6773 129.396 57.5031 129.35C60.3289 129.396 63.1776 128.037 64.7168 125.249C65.4979 123.843 65.6588 120.733 63.4073 121.078C62.5573 121.194 61.8221 121.747 60.9491 122.23C59.8464 122.853 58.6747 123.129 57.4801 123.083C56.3314 123.129 55.1598 122.853 54.057 122.23Z" fill="#590D32"/>
<path fill-rule="evenodd" clip-rule="evenodd" d="M31.1984 112.254C30.6011 111.862 30.4173 111.079 30.7849 110.48C31.1754 109.881 31.9565 109.697 32.5539 110.065C32.5768 110.088 40.7095 115.18 40.8703 117.761C41.0771 120.687 32.0025 123.728 31.9565 123.752C31.2903 123.982 30.5551 123.613 30.3254 122.945C30.0957 122.277 30.4632 121.54 31.1295 121.309C31.1525 121.309 38.3432 118.89 38.2743 117.945C38.2284 116.655 31.2214 112.254 31.1984 112.254Z" fill="#590D32"/>
<path fill-rule="evenodd" clip-rule="evenodd" d="M82.4758 110.065C83.0731 109.674 83.8771 109.858 84.2447 110.48C84.6353 111.079 84.4515 111.886 83.8312 112.254C83.8082 112.277 76.8012 116.678 76.7093 117.922C76.6404 118.844 83.8312 121.263 83.8542 121.286C84.5204 121.517 84.888 122.254 84.6583 122.922C84.4285 123.59 83.6934 123.959 83.0271 123.729C83.0042 123.729 73.9295 120.664 74.1363 117.738C74.3201 115.157 82.4528 110.065 82.4758 110.065Z" fill="#590D32"/>
<path fill-rule="evenodd" clip-rule="evenodd" d="M33.8864 131.217C38.2514 131.217 41.8353 130.295 41.8353 129.166C41.8353 128.037 38.2744 127.116 33.8864 127.116C29.5214 127.116 25.9375 128.037 25.9375 129.166C25.9375 130.295 29.5214 131.217 33.8864 131.217Z" fill="#EE8289"/>
<path fill-rule="evenodd" clip-rule="evenodd" d="M81.1664 131.217C85.5314 131.217 89.1153 130.295 89.1153 129.166C89.1153 128.037 85.5544 127.116 81.1664 127.116C76.8014 127.116 73.2175 128.037 73.2175 129.166C73.2175 130.295 76.7785 131.217 81.1664 131.217Z" fill="#EE8289"/>
</svg>
