<svg width="592" height="912" viewBox="0 0 592 912" fill="none" xmlns="http://www.w3.org/2000/svg">
    <path d="M385.693 649.54C382.647 648.361 381.2 645.125 382.437 642.258C383.097 640.729 384.474 639.552 386.104 639.068C388.346 638.449 440.871 621.971 432.963 573.489C420.376 498.516 365.534 473.507 364.75 473.129C361.827 471.849 360.57 468.538 361.915 465.788C363.26 463.037 366.767 461.866 369.69 463.146C372.262 464.141 430.999 491.103 444.585 571.816C454.365 629.868 390.305 649.466 389.667 649.665C388.322 650.036 386.911 650.011 385.693 649.54Z" fill="#343434" />
    <path d="M363.703 647.001C355.029 642.985 348.517 635.773 345.677 627.123C343.025 618.399 345.507 609.021 352.154 602.502C359.137 596.112 369.753 594.721 378.358 599.077C383.412 601.691 386.346 606.859 385.828 612.231C387.747 609.234 391.252 605.825 394.482 607.588C397.712 609.35 396.772 612.799 395.459 615.297C393.677 617.614 392.618 620.43 392.54 623.332C393.756 631.574 406.668 640.456 394.821 647.602C384.958 652.145 373.394 651.923 363.703 647.001Z" fill="#343434" />
    <path d="M96.7833 807.306L95.3462 806.75C90.8873 804.128 89.4938 798.66 92.1799 794.471C92.3732 794.023 128.196 731.549 133.429 690.552C138.846 647.834 168.333 524.353 168.211 524.081C166.678 519.306 169.627 514.322 174.675 512.989C179.722 511.655 185.017 514.376 186.481 519.125C186.97 520.584 158.202 646.285 152.403 692.665C146.746 737.605 109.724 801.93 108.553 803.718C106.061 807.459 101.095 808.974 96.7833 807.306Z" fill="#343434" />
    <path d="M114.709 791.816C122.409 794.647 129.414 798.91 135.379 804.323C143.586 812.451 147.338 824.253 145.678 827.382C142.478 833.537 78.508 811.523 81.7527 802.206C84.9974 792.889 102.964 785.054 102.964 785.054L114.709 791.816Z" fill="#343434" />
    <path d="M-48.2036 751.212C-52.2604 749.642 -54.6199 745.602 -53.9695 741.535C-53.6168 739.438 -36.055 668.571 -9.75115 631.02C17.5241 592.131 88.2202 481.51 89.5948 480.701C93.9238 477.983 99.7735 479.055 102.661 483.15C105.549 487.246 104.428 492.769 100.099 495.487C100.004 495.525 99.9765 495.589 99.8814 495.626C99.8814 495.626 30.968 605.225 5.6804 640.787C-18.3653 675.117 -35.6019 743.95 -35.4667 744.003C-36.2847 748.824 -41.1871 752.139 -46.2654 751.292C-46.333 751.265 -46.4007 751.239 -46.4958 751.277C-47.0517 751.285 -47.6752 751.267 -48.2036 751.212Z" fill="#343434" />
    <path d="M-141.871 442.349C-142.888 441.956 -143.794 441.305 -144.426 440.384C-144.969 440.174 -181.258 387.822 -135.024 353.124C-71.3243 305.276 -8.55176 321.749 -5.93137 322.463C-2.90407 323.333 -1.16037 326.262 -2.0836 329.135C-3.00682 332.008 -6.09698 333.667 -9.12427 332.796C-9.66682 332.586 -69.0051 317.141 -128.048 361.532C-166.157 390.058 -136.369 432.534 -135.078 434.31C-133.371 436.774 -133.998 440.062 -136.558 441.776C-138.119 442.824 -140.175 443.005 -141.871 442.349Z" fill="#343434" />
    <g clip-path="url(#clip0)">
        <path d="M394.476 493.268L386.508 490.012C386.484 482.554 385.609 475.091 384.073 467.785C375.392 426.397 368.925 400.468 378.084 359.262C384.192 333.249 370.525 306.775 345.89 296.709L158.454 220.123C133.819 210.057 105.494 219.459 91.6671 242.233C69.7155 278.211 46.8513 292.413 11.4682 315.54C5.18243 319.649 -0.595278 324.395 -5.90808 329.672L-13.8763 326.416L-35.1899 378.579C-39.8568 390.627 -42.3738 403.468 -42.6172 416.382C-43.2181 455.433 -23.2115 491.861 10.0813 512.056L20.5166 518.461C87.1023 558.852 159.547 588.453 235.366 606.247L247.373 609.013C285.282 617.91 325.074 605.917 351.918 577.589C360.788 568.199 367.983 557.27 373.089 545.401L394.476 493.268Z" fill="#99603B" />
        <path d="M297.341 202.989C316.317 210.742 338.007 201.59 345.789 182.546C353.57 163.502 344.495 141.779 325.519 134.026C306.544 126.272 284.853 135.425 277.072 154.469C269.291 173.512 278.366 195.236 297.341 202.989Z" fill="#C8B283" />
        <path d="M407.433 241.295L153.254 137.438C129.057 127.552 101.329 139.252 91.4064 163.536C83.8522 182.024 86.2679 203.045 97.7188 219.281L127.304 261.078L339.302 347.7L389.618 338.551C409.163 334.979 425.608 321.664 433.162 303.176C443.084 278.892 431.6 251.255 407.433 241.295Z" fill="#E9CD95" />
        <path d="M360.605 260.688L173.17 184.102C148.607 174.066 120.312 183.394 106.412 206.139C84.4307 242.19 61.5964 256.318 26.1833 279.519C-4.25773 299.528 -22.8303 333.291 -23.4823 369.753C-24.0832 408.804 -4.07657 445.231 29.2163 465.427L39.6515 471.831C106.237 512.223 178.682 541.823 254.501 559.618L266.508 562.384C304.417 571.281 344.208 559.287 371.053 530.959C396.092 504.547 406.507 467.366 398.861 431.794C390.18 390.406 383.713 364.476 392.902 323.198C398.907 297.228 385.241 270.754 360.605 260.688Z" fill="#AF6C45" />
        <path d="M258.742 187.217C277.717 194.97 299.408 185.818 307.189 166.774C314.97 147.73 305.895 126.007 286.92 118.254C267.944 110.5 246.254 119.653 238.472 138.697C230.691 157.74 239.766 179.464 258.742 187.217Z" fill="#E9CD95" />
        <path fill-rule="evenodd" clip-rule="evenodd" d="M97.3755 422.215C111.411 427.95 124.014 429.675 125.513 426.006C127.012 422.338 116.777 414.817 102.741 409.082C88.7056 403.347 76.0294 401.592 74.5606 405.187C73.0917 408.782 83.3398 416.48 97.3755 422.215Z" fill="#EE8289" />
        <path fill-rule="evenodd" clip-rule="evenodd" d="M249.068 484.196C263.177 489.961 275.78 491.686 277.279 488.018C278.778 484.349 268.543 476.828 254.434 471.064C240.325 465.299 227.795 463.604 226.326 467.198C224.857 470.793 235.032 478.461 249.068 484.196Z" fill="#EE8289" />
        <path fill-rule="evenodd" clip-rule="evenodd" d="M163.267 438.009C161.544 435.336 159.422 433.014 156.901 431.042C150.01 427.028 146.548 437.171 147.248 442.765C149.678 458.74 164.637 469.732 180.608 467.183C185.338 466.462 189.771 464.591 193.596 461.702C198.013 458.199 202.661 448.284 194.915 446.574C191.734 446.216 188.592 446.388 185.491 447.09C177.18 447.803 168.993 444.458 163.56 438.129L163.267 438.009Z" fill="#590D32" />
        <path d="M240.942 381.737C231.603 372.441 220.427 365.135 208.129 360.367C196.131 354.865 182.963 352.225 169.74 352.644L180.082 327.333L251.284 356.426L240.942 381.737Z" fill="#343434" stroke="#343434" stroke-width="2.75" stroke-miterlimit="10" />
        <path d="M87.6539 391.105C16.9636 362.221 31.0527 327.739 45.9513 291.277C61.7791 252.54 78.0578 243.181 138.075 267.704C196.557 291.6 197.104 325.127 187.332 349.044C173.303 383.379 152.862 417.749 87.6539 391.105Z" fill="#343434" />
        <path d="M136.602 271.299C173.519 286.383 198.712 310.118 183.574 347.168C168.435 384.217 148.864 411.237 89.3588 386.923C22.5429 359.622 34.8034 329.615 49.9418 292.566C65.0802 255.516 78.9244 247.732 136.602 271.299ZM139.78 263.522C108.053 250.559 89.2892 247.001 74.9926 251.091C58.8275 255.787 50.2699 269.841 42.3859 289.136C27.3975 325.819 11.8094 363.969 86.3742 394.436C152.167 421.318 175.628 388.954 191.515 350.07C202.007 324.392 201.599 288.439 139.973 263.259L139.78 263.522Z" fill="#343434" />
        <path d="M179.964 301.943C174.525 294.584 167.829 288.423 160.065 283.624C121.482 301.848 80.9275 315.499 39.1544 324.201C36.8899 333.292 37.7461 342.888 41.5017 351.443C89.8168 346.357 140.304 330.942 179.964 301.943Z" fill="#B1B1B1" />
        <path d="M272.533 466.646C207.252 439.972 216.758 401.049 230.757 366.788C240.529 342.871 264.472 319.35 322.954 343.245C382.971 367.768 388.039 385.849 372.211 424.586C357.312 461.048 343.223 495.53 272.533 466.646Z" fill="#343434" />
        <path d="M321.483 346.841C379.161 370.408 383.592 385.66 368.454 422.709C353.316 459.759 341.055 489.765 274.239 462.464C215.099 438.3 219.611 405.127 234.749 368.078C249.887 331.028 284.566 331.756 321.483 346.841ZM324.66 339.064C262.962 313.854 237.492 339.234 227 364.912C211.112 403.795 205.488 443.448 271.062 470.241C345.626 500.708 361.184 462.631 376.203 425.875C384.207 406.287 387.793 390.202 379.569 375.882C372.227 362.951 356.34 352.351 324.687 339.417L324.66 339.064Z" fill="#343434" />
        <path d="M352.123 361.842C344.751 357.545 337.096 353.732 329.231 350.433C301.966 379.788 264.952 398.139 225.2 402.102C224.079 411.318 225.803 420.669 230.031 428.904C279.475 428.987 325.543 403.719 352.123 361.842Z" fill="#B1B1B1" />
    </g>
    <defs>
        <clipPath id="clip0">
            <rect width="441.203" height="480.355" fill="white" transform="translate(102.044 42.7139) rotate(22.2248)" />
        </clipPath>
    </defs>
</svg>
