<svg width="497" height="495" viewBox="0 0 497 495" fill="none" xmlns="http://www.w3.org/2000/svg">
    <g clip-path="url(#clip0)">
        <path d="M321.934 140.309L318.782 143.6C314.981 142.161 311.114 141.1 307.182 140.415C284.578 136.669 270.3 134.735 251.599 121.815C239.721 113.667 223.727 115.225 213.831 125.558L138.623 204.088C128.727 214.421 127.934 230.391 136.587 241.906C150.304 260.032 152.852 274.212 157.571 296.634C158.351 300.609 159.656 304.5 161.254 308.085L158.102 311.376L180.022 332.369C185.035 337.024 191.005 340.834 197.55 343.58C217.03 351.67 239.167 348.951 255.776 336.244L261.019 332.314C294.32 307.123 323.421 276.736 347.224 242.303L350.923 236.895C362.825 219.678 364.585 197.444 355.738 178.406C352.712 171.986 348.725 166.26 343.781 161.379L321.861 140.386L321.934 140.309Z" fill="#9B603C" />
        <path d="M157.368 131.208C164.979 123.26 164.653 110.596 156.639 102.921C148.625 95.246 135.958 95.4665 128.347 103.414C120.736 111.361 121.063 124.025 129.077 131.7C137.091 139.375 149.757 139.155 157.368 131.208Z" fill="#CAB385" />
        <path d="M198.147 83.6835L96.1832 190.151C86.5072 200.254 86.9225 216.353 97.1109 226.111C104.907 233.577 115.823 236.548 126.222 234.033L153.004 227.546L237.962 138.836L243.286 111.799C245.349 101.301 241.832 90.4493 234.114 83.0573C224.003 73.3738 207.823 73.5802 198.147 83.6835Z" fill="#EACE97" />
        <path d="M198.703 111.07L123.495 189.6C113.672 199.856 112.729 215.829 121.382 227.344C135.098 245.469 137.647 259.65 142.366 282.072C146.475 301.268 159.685 317.295 177.795 324.807C197.275 332.897 219.411 330.179 236.021 317.471L241.264 313.541C274.565 288.35 303.666 257.964 327.468 223.53L331.168 218.122C343.069 200.905 344.829 178.671 335.983 159.633C327.695 141.865 311.109 129.208 291.757 126.083C269.153 122.337 254.875 120.403 236.174 107.482C224.516 99.1051 208.599 100.737 198.703 111.07Z" fill="#B06C46" />
        <path d="M141.902 147.357C149.513 139.41 149.186 126.746 141.172 119.071C133.158 111.396 120.491 111.616 112.88 119.564C105.269 127.511 105.596 140.175 113.61 147.85C121.624 155.525 134.291 155.305 141.902 147.357Z" fill="#EACE97" />
        <g clip-path="url(#clip1)">
            <path fill-rule="evenodd" clip-rule="evenodd" d="M207.806 203.991C206.069 204.543 204.323 204.79 203.059 205.794C199.709 208.345 204.111 212.265 207.113 213.073C212.964 214.69 218.543 212.65 222.152 208.723C225.919 204.948 227.716 199.286 225.848 193.51C224.911 190.546 220.805 186.318 218.401 189.774C217.452 191.081 217.281 192.836 216.805 194.595C216.27 196.888 215.115 198.883 213.487 200.425C212.017 202.118 210.074 203.358 207.806 203.991Z" fill="#5A0D32" />
            <path fill-rule="evenodd" clip-rule="evenodd" d="M193.988 243.178C199.668 237.247 203.054 231.188 201.479 229.679C199.903 228.17 193.996 231.815 188.317 237.746C182.637 243.676 179.25 249.735 180.826 251.244C182.475 252.676 188.382 249.031 193.988 243.178Z" fill="#EF838B" />
            <path fill-rule="evenodd" clip-rule="evenodd" d="M255.284 179.175C260.963 173.245 264.35 167.185 262.774 165.677C261.199 164.168 255.292 167.813 249.612 173.743C243.932 179.674 240.546 185.733 242.121 187.242C243.697 188.751 249.604 185.106 255.284 179.175Z" fill="#EF838B" />
            <path fill-rule="evenodd" clip-rule="evenodd" d="M179.951 221.213C185.371 215.554 185.226 206.445 179.462 200.926C173.699 195.406 164.593 195.654 159.173 201.313C153.681 207.048 153.899 216.081 159.662 221.601C165.349 227.048 174.459 226.948 179.951 221.213Z" fill="#5A0D32" />
            <path fill-rule="evenodd" clip-rule="evenodd" d="M171.434 209.005C173.385 206.968 173.234 203.785 171.263 201.897C169.291 200.009 166.033 200.071 164.154 202.033C162.203 204.07 162.354 207.253 164.325 209.141C166.297 211.029 169.555 210.967 171.434 209.005Z" fill="white" />
            <path fill-rule="evenodd" clip-rule="evenodd" d="M233.845 166.585C239.265 160.926 239.12 151.818 233.356 146.298C227.669 140.851 218.559 140.951 213.067 146.686C207.647 152.345 207.793 161.454 213.556 166.973C219.243 172.42 228.425 172.245 233.845 166.585Z" fill="#5A0D32" />
            <path fill-rule="evenodd" clip-rule="evenodd" d="M226.054 153.771C228.006 151.733 227.855 148.551 225.883 146.663C223.911 144.774 220.653 144.837 218.774 146.799C216.823 148.836 216.974 152.018 218.946 153.906C220.917 155.795 224.175 155.732 226.054 153.771Z" fill="white" />
        </g>
        <path d="M147.8 274.807C147.8 274.807 143.626 323.004 151.709 341.302C159.791 359.601 201.609 405.197 201.609 405.197L205.395 402.108C189.672 383.534 165.357 357.053 157.624 338.781C149.891 320.508 152.084 293.933 154.954 275.29L147.8 274.807Z" fill="#593A26" />
    </g>
    <defs>
        <clipPath id="clip0">
            <rect width="328.751" height="372.391" fill="white" transform="translate(0 237.429) rotate(-46.2376)" />
        </clipPath>
        <clipPath id="clip1">
            <rect width="118.479" height="54.1" fill="white" transform="translate(144.59 216.541) rotate(-46.2376)" />
        </clipPath>
    </defs>
</svg>
