<svg width="390" height="236" viewBox="0 0 390 236" fill="none" xmlns="http://www.w3.org/2000/svg">
<path d="M347.367 194.016H341.96C340.074 189.626 337.811 185.488 335.171 181.6C319.833 159.401 309.775 145.731 305.5 119.394C302.734 102.714 288.276 90.4238 271.303 90.4238H142.31C125.337 90.4238 111.004 102.714 108.238 119.394C103.964 145.731 93.9058 159.401 78.5674 181.6C75.8014 185.488 73.5384 189.752 71.7782 194.016H66.3721V229.633C66.4978 237.66 68.1322 245.812 71.1496 253.587C80.2018 276.663 100.695 293.218 125.211 296.98L132.88 298.235C181.787 306.01 231.7 306.01 280.732 298.235L288.402 296.98C312.918 293.093 333.411 276.538 342.463 253.587C345.481 245.812 347.115 237.785 347.241 229.633V194.016H347.367Z" fill="#9B603C"/>
<path d="M220.133 47.1556C233.187 47.1556 243.77 36.5995 243.77 23.5778C243.77 10.5561 233.187 0 220.133 0C207.079 0 196.497 10.5561 196.497 23.5778C196.497 36.5995 207.079 47.1556 220.133 47.1556Z" fill="#CAB385"/>
<path d="M294.311 43.1426H119.428C102.832 43.1426 89.3799 56.5619 89.3799 73.1165C89.3799 85.7833 95.7918 97.4468 106.478 104.219L134.012 121.652H279.727L307.261 104.219C317.947 97.4468 324.359 85.6579 324.359 73.1165C324.359 56.6873 310.907 43.1426 294.311 43.1426Z" fill="#EACE97"/>
<path d="M271.303 65.8428H142.31C125.463 65.8428 111.004 78.0079 108.238 94.688C103.964 121.025 93.9058 134.695 78.5674 156.893C65.4921 175.956 62.6004 200.161 71.0239 221.607C80.0761 244.683 100.569 261.238 125.086 265L132.755 266.254C181.662 274.03 231.574 274.03 280.607 266.254L288.276 265C312.792 261.112 333.285 244.558 342.338 221.607C350.761 200.161 347.995 175.831 334.794 156.893C319.456 134.695 309.398 121.025 305.123 94.688C302.734 78.0079 288.276 65.8428 271.303 65.8428Z" fill="#B06C46"/>
<path d="M193.605 47.1556C206.659 47.1556 217.241 36.5995 217.241 23.5778C217.241 10.5561 206.659 0 193.605 0C180.551 0 169.969 10.5561 169.969 23.5778C169.969 36.5995 180.551 47.1556 193.605 47.1556Z" fill="#EACE97"/>
<g clip-path="url(#clip0)">
<path fill-rule="evenodd" clip-rule="evenodd" d="M199.159 148.978C197.262 147.954 195.617 146.674 193.719 146.418C188.785 145.651 189.038 152.562 190.81 155.762C194.225 162.034 200.551 165.106 206.876 164.978C213.202 165.106 219.527 162.034 222.943 155.762C224.714 152.562 224.967 145.651 220.033 146.418C218.136 146.674 216.491 147.954 214.594 148.978C212.19 150.386 209.533 151.026 206.876 150.898C204.22 151.026 201.563 150.386 199.159 148.978Z" fill="#5A0D32"/>
<path fill-rule="evenodd" clip-rule="evenodd" d="M154.249 169.074C163.99 169.074 171.96 167.026 171.96 164.466C171.96 161.906 163.99 159.858 154.249 159.858C144.507 159.858 136.537 161.906 136.537 164.466C136.664 167.026 144.634 169.074 154.249 169.074Z" fill="#EF838B"/>
<path fill-rule="evenodd" clip-rule="evenodd" d="M259.378 169.074C269.12 169.074 277.09 167.026 277.09 164.466C277.09 161.906 269.12 159.858 259.378 159.858C249.637 159.858 241.667 161.906 241.667 164.466C241.667 167.026 249.637 169.074 259.378 169.074Z" fill="#EF838B"/>
<path fill-rule="evenodd" clip-rule="evenodd" d="M161.549 139.35C170.845 139.35 178.529 131.833 178.529 122.469C178.529 113.104 170.845 105.588 161.549 105.588C152.129 105.588 144.568 113.104 144.568 122.469C144.568 131.71 152.129 139.35 161.549 139.35Z" fill="#5A0D32"/>
<path fill-rule="evenodd" clip-rule="evenodd" d="M165.02 122.223C168.366 122.223 170.969 119.512 170.969 116.308C170.969 113.104 168.242 110.394 165.02 110.394C161.673 110.394 159.07 113.104 159.07 116.308C159.07 119.512 161.797 122.223 165.02 122.223Z" fill="white"/>
<path fill-rule="evenodd" clip-rule="evenodd" d="M252.573 140.687C261.869 140.687 269.554 133.17 269.554 123.806C269.554 114.564 261.993 106.925 252.573 106.925C243.277 106.925 235.593 114.441 235.593 123.806C235.593 133.047 243.277 140.687 252.573 140.687Z" fill="#5A0D32"/>
<path fill-rule="evenodd" clip-rule="evenodd" d="M257.159 123.682C260.506 123.682 263.109 120.972 263.109 117.768C263.109 114.564 260.382 111.854 257.159 111.854C253.813 111.854 251.21 114.564 251.21 117.768C251.21 120.972 253.937 123.682 257.159 123.682Z" fill="white"/>
</g>
<path d="M89.2503 155.602C89.2503 155.602 44.5322 191.185 35.4867 212.887C26.4412 234.59 21.6889 307.04 21.6889 307.04L27.4417 307.742C30.4536 279.34 33.1911 237.239 42.501 215.854C51.8109 194.469 76.3799 174.757 94.7063 162.057L89.2503 155.602Z" fill="#343434"/>
<path d="M330.553 161.084C330.553 161.084 367.387 204.755 371.98 227.81C376.574 250.865 366.96 322.833 366.96 322.833L360.841 319.771C364.535 290.266 368.886 245.185 364.187 227.81C361.359 217.353 342.605 186.967 325.368 166.067L330.553 161.084Z" fill="#343434"/>
<defs>
<clipPath id="clip0">
<rect width="140.553" height="63.4863" fill="white" transform="translate(136.537 105.588)"/>
</clipPath>
</defs>
</svg>
