<svg width="196" height="180" viewBox="0 0 196 180" fill="none" xmlns="http://www.w3.org/2000/svg">
<g clip-path="url(#clip0)">
<path d="M138.001 73.3782H135.962C135.251 71.7181 134.398 70.1528 133.402 68.6824C127.619 60.2868 123.826 55.1167 122.214 45.1559C121.171 38.8474 115.719 34.199 109.319 34.199H60.6777C54.2776 34.199 48.873 38.8474 47.83 45.1559C46.2181 55.1167 42.4254 60.2868 36.6416 68.6824C35.5986 70.1528 34.7453 71.7655 34.0815 73.3782H32.043V86.849C32.0904 89.8847 32.7067 92.9678 33.8445 95.9086C37.2579 104.636 44.9855 110.897 54.2301 112.32L57.1221 112.795C75.564 115.735 94.3852 115.735 112.874 112.795L115.766 112.32C125.011 110.85 132.739 104.589 136.152 95.9086C137.29 92.9678 137.906 89.9321 137.954 86.849V73.3782H138.001Z" fill="#9B603C"/>
<path d="M90.0222 17.8346C94.9446 17.8346 98.935 13.8422 98.935 8.9173C98.935 3.99241 94.9446 0 90.0222 0C85.0998 0 81.1094 3.99241 81.1094 8.9173C81.1094 13.8422 85.0998 17.8346 90.0222 17.8346Z" fill="#CAB385"/>
<path d="M117.995 16.3169H52.0494C45.7915 16.3169 40.7188 21.3922 40.7188 27.6533C40.7188 32.4439 43.1366 36.8552 47.1663 39.4165L57.5488 46.0096H112.495L122.878 39.4165C126.907 36.8552 129.325 32.3965 129.325 27.6533C129.325 21.4396 124.253 16.3169 117.995 16.3169Z" fill="#EACE97"/>
<path d="M109.318 24.9021H60.6767C54.324 24.9021 48.872 29.503 47.829 35.8116C46.2171 45.7724 42.4245 50.9425 36.6406 59.3381C31.7101 66.5478 30.6197 75.7023 33.7961 83.8132C37.2095 92.5408 44.9371 98.8019 54.1818 100.225L57.0737 100.699C75.5156 103.64 94.3368 103.64 112.826 100.699L115.718 100.225C124.963 98.7545 132.69 92.4934 136.104 83.8132C139.28 75.7023 138.237 66.5004 133.259 59.3381C127.475 50.9425 123.683 45.7724 122.071 35.8116C121.17 29.503 115.718 24.9021 109.318 24.9021Z" fill="#B06C46"/>
<path d="M80.0183 17.8346C84.9407 17.8346 88.9311 13.8422 88.9311 8.9173C88.9311 3.99241 84.9407 0 80.0183 0C75.0959 0 71.1055 3.99241 71.1055 8.9173C71.1055 13.8422 75.0959 17.8346 80.0183 17.8346Z" fill="#EACE97"/>
<g clip-path="url(#clip1)">
<path fill-rule="evenodd" clip-rule="evenodd" d="M87.8928 62.3638C88.602 61.9649 89.2141 61.4708 89.928 61.3623C91.7835 61.0416 91.7308 63.6569 91.0827 64.8778C89.8335 67.2706 87.4675 68.4711 85.0818 68.4616C82.6977 68.5489 80.2938 67.4261 78.9673 65.0753C78.2798 63.8762 78.1418 61.264 80.0068 61.5241C80.7238 61.6092 81.3518 62.0831 82.0736 62.4587C82.9885 62.9763 83.9941 63.202 84.995 63.1373C85.9975 63.1694 86.9952 62.911 87.8928 62.3638Z" fill="#5A0D32"/>
<path fill-rule="evenodd" clip-rule="evenodd" d="M65.1787 70.0111C68.8519 70.0111 71.8573 69.2366 71.8573 68.2684C71.8573 67.3002 68.8519 66.5256 65.1787 66.5256C61.5054 66.5256 58.5 67.3002 58.5 68.2684C58.5477 69.2366 61.5531 70.0111 65.1787 70.0111Z" fill="#EF838B"/>
<path fill-rule="evenodd" clip-rule="evenodd" d="M104.821 70.0111C108.495 70.0111 111.5 69.2366 111.5 68.2684C111.5 67.3002 108.495 66.5256 104.821 66.5256C101.148 66.5256 98.1426 67.3002 98.1426 68.2684C98.1426 69.2366 101.148 70.0111 104.821 70.0111Z" fill="#EF838B"/>
<path fill-rule="evenodd" clip-rule="evenodd" d="M65.8971 46.7682C65.2945 46.4257 65.1301 45.7895 65.5136 45.2512C65.8971 44.7619 66.6093 44.5662 67.2119 44.9087C67.2119 44.9087 74.9911 49.2638 75.1554 51.4659C75.3198 53.9615 66.664 56.5551 66.664 56.5551C66.0066 56.7508 65.3492 56.4572 65.1301 55.87C64.911 55.2828 65.2397 54.6956 65.8971 54.4998C65.8971 54.4998 72.745 52.4446 72.6902 51.6616C72.6354 50.5361 65.9519 46.8171 65.8971 46.7682Z" fill="#5A0D32"/>
<path fill-rule="evenodd" clip-rule="evenodd" d="M102.79 44.9094C103.392 44.5655 104.104 44.762 104.488 45.2534C104.871 45.7939 104.652 46.4326 104.104 46.7766C104.104 46.7766 97.4209 50.5601 97.3113 51.6411C97.2565 52.4273 104.104 54.4911 104.104 54.4911C104.762 54.6876 105.091 55.3264 104.871 55.8669C104.652 56.4565 103.94 56.7514 103.337 56.5548C103.337 56.5548 94.6817 53.9506 94.8461 51.4446C95.0104 49.2826 102.79 44.9585 102.79 44.9094Z" fill="#5A0D32"/>
</g>
</g>
<path d="M55.0016 173.969C55.0016 173.969 35.2327 158.534 35.5806 143.504C35.9285 128.474 55.0016 109.968 55.0016 109.968L57.0871 111.791C51.2352 117.988 39.3974 133.006 38.8612 143.504C38.325 154.002 50.7884 166.59 57.0871 171.572L55.0016 173.969Z" fill="#593A26"/>
<ellipse rx="5.1015" ry="2.52549" transform="matrix(0.802386 -0.596806 0.589582 0.807708 55.0941 174.417)" fill="#593A26"/>
<ellipse rx="5.1015" ry="2.52549" transform="matrix(0.802386 -0.596806 0.589582 0.807708 55.0941 174.417)" fill="#593A26"/>
<path d="M114.515 111.183C114.515 111.183 130.319 121.885 133.601 134.713C136.882 147.541 133.601 172.811 133.601 172.811L129.875 171.97C131.182 161.185 133.601 147.132 129.875 134.713C127.442 126.602 118.001 117.065 112.881 113.47L114.515 111.183Z" fill="#593A26"/>
<ellipse rx="5.10135" ry="2.52555" transform="matrix(0.942899 0.33308 -0.340729 0.940162 133.959 172.163)" fill="#593A26"/>
<ellipse rx="5.10135" ry="2.52555" transform="matrix(0.942899 0.33308 -0.340729 0.940162 133.959 172.163)" fill="#593A26"/>
<path d="M33.3498 79.1357C33.3498 79.1357 17.8954 93.6928 15.2145 102.013C12.5337 110.333 12.9991 137.327 12.9991 137.327L15.1493 137.411C15.392 126.794 15.1126 111.107 17.901 102.897C20.6895 94.6868 29.1755 86.6289 35.5668 81.3608L33.3498 79.1357Z" fill="#593A26"/>
<path d="M133.322 66.1394C133.322 66.1394 153.193 58.6626 161.844 59.9143C170.495 61.166 194.534 73.457 194.534 73.457L192.703 75.2191C182.817 70.2668 167.552 63.1522 160.879 62.642C156.863 62.335 143.888 65.1307 134.427 68.5722L133.322 66.1394Z" fill="#593A26"/>
<defs>
<clipPath id="clip0">
<rect width="106" height="115" fill="white" transform="translate(32)"/>
</clipPath>
<clipPath id="clip1">
<rect width="53" height="25.2747" fill="white" transform="translate(58.5 44.7363)"/>
</clipPath>
</defs>
</svg>
