<svg width="70" height="70" viewBox="0 0 70 70" fill="none" xmlns="http://www.w3.org/2000/svg">
    <circle cx="35" cy="35" r="31" fill="white" stroke="#F8AF87" stroke-width="8" />
    <mask id="mask0" mask-type="alpha" maskUnits="userSpaceOnUse" x="0" y="0" width="70" height="70">
        <circle cx="35" cy="35" r="35" fill="#D4E3FF" />
    </mask>
    <g mask="url(#mask0)">
        <path d="M64.1667 47.652H63.0448C62.6535 46.7389 62.1839 45.878 61.636 45.0692C58.453 40.4513 56.3659 37.6076 55.4788 32.1287C54.9049 28.6588 51.9046 26.1021 48.3825 26.1021H21.6146C18.0925 26.1021 15.1182 28.6588 14.5443 32.1287C13.6572 37.6076 11.5701 40.4513 8.38714 45.0692C7.81316 45.878 7.34355 46.765 6.9783 47.652H5.85645V55.0615C5.88253 56.7312 6.2217 58.427 6.84785 60.0446C8.7263 64.8451 12.9789 68.2889 18.0664 69.0716L19.6578 69.3325C29.8067 70.95 40.1642 70.95 50.3392 69.3325L51.9307 69.0716C57.0181 68.2628 61.2707 64.819 63.1492 60.0446C63.7753 58.427 64.1145 56.7573 64.1406 55.0615V47.652H64.1667Z" fill="#9B603C" />
        <path d="M37.764 17.1012C40.4728 17.1012 42.6688 14.9052 42.6688 12.1963C42.6688 9.48748 40.4728 7.2915 37.764 7.2915C35.0551 7.2915 32.8591 9.48748 32.8591 12.1963C32.8591 14.9052 35.0551 17.1012 37.764 17.1012Z" fill="#CAB385" />
        <path d="M53.1566 16.2661H16.866C13.4222 16.2661 10.6306 19.0577 10.6306 22.5015C10.6306 25.1366 11.9612 27.5629 14.1788 28.9717L19.8924 32.5982H50.1302L55.8439 28.9717C58.0615 27.5629 59.3921 25.1105 59.3921 22.5015C59.3921 19.0838 56.6005 16.2661 53.1566 16.2661Z" fill="#EACE97" />
        <path d="M48.3826 20.9888H21.6147C18.1187 20.9888 15.1184 23.5195 14.5444 26.9894C13.6574 32.4682 11.5702 35.3119 8.3873 39.9298C5.67398 43.8954 5.07392 48.9307 6.82192 53.392C8.70037 58.1925 12.953 61.6363 18.0404 62.419L19.6319 62.6799C29.7808 64.2975 40.1383 64.2975 50.3133 62.6799L51.9047 62.419C56.9922 61.6102 61.2448 58.1664 63.1232 53.392C64.8712 48.9307 64.2973 43.8693 61.5579 39.9298C58.3749 35.3119 56.2878 32.4682 55.4007 26.9894C54.905 23.5195 51.9047 20.9888 48.3826 20.9888Z" fill="#B06C46" />
        <path d="M32.2596 17.1012C34.9684 17.1012 37.1644 14.9052 37.1644 12.1963C37.1644 9.48748 34.9684 7.2915 32.2596 7.2915C29.5507 7.2915 27.3547 9.48748 27.3547 12.1963C27.3547 14.9052 29.5507 17.1012 32.2596 17.1012Z" fill="#EACE97" />
        <path fill-rule="evenodd" clip-rule="evenodd" d="M34.7374 45.9562C34.3461 45.7475 34.0069 45.4866 33.6156 45.4344C32.5981 45.2779 32.6503 46.6867 33.0155 47.339C33.72 48.6173 35.0244 49.2435 36.3289 49.2174C37.6334 49.2435 38.9379 48.6173 39.6423 47.339C40.0075 46.6867 40.0597 45.2779 39.0422 45.4344C38.6509 45.4866 38.3117 45.7475 37.9204 45.9562C37.4247 46.2432 36.8768 46.3736 36.3289 46.3475C35.781 46.3736 35.2331 46.2432 34.7374 45.9562Z" fill="#5A0D32" />
        <path fill-rule="evenodd" clip-rule="evenodd" d="M25.4758 50.0523C27.4847 50.0523 29.1283 49.6348 29.1283 49.1131C29.1283 48.5913 27.4847 48.1738 25.4758 48.1738C23.4669 48.1738 21.8232 48.5913 21.8232 49.1131C21.8493 49.6348 23.493 50.0523 25.4758 50.0523Z" fill="#F8AF87" />
        <path fill-rule="evenodd" clip-rule="evenodd" d="M47.1564 50.0523C49.1653 50.0523 50.809 49.6348 50.809 49.1131C50.809 48.5913 49.1653 48.1738 47.1564 48.1738C45.1476 48.1738 43.5039 48.5913 43.5039 49.1131C43.5039 49.6348 45.1476 50.0523 47.1564 50.0523Z" fill="#F8AF87" />
        <path fill-rule="evenodd" clip-rule="evenodd" d="M24.2753 41.3905C24.2753 41.834 23.91 42.1993 23.4665 42.1993C23.023 42.1993 22.6577 41.834 22.6577 41.3905C22.6577 40.2165 23.1273 39.1207 23.91 38.3641C24.6927 37.5814 25.7624 37.1118 26.9364 37.1118C28.1104 37.1118 29.2062 37.5814 29.9628 38.3641C30.7455 39.1468 31.2151 40.2165 31.2151 41.3905C31.2151 41.834 30.8498 42.1993 30.4063 42.1993C29.9628 42.1993 29.5975 41.834 29.5975 41.3905C29.5975 40.66 29.3106 39.9817 28.8149 39.5121C28.3452 39.0424 27.6669 38.7294 26.9364 38.7294C26.2059 38.7294 25.5276 39.0164 25.058 39.5121C24.5883 39.9817 24.2753 40.66 24.2753 41.3905Z" fill="#5A0D32" />
        <path fill-rule="evenodd" clip-rule="evenodd" d="M43.0599 41.3905C43.0599 41.834 42.6947 42.1993 42.2512 42.1993C41.8076 42.1993 41.4424 41.834 41.4424 41.3905C41.4424 40.2165 41.912 39.1207 42.6947 38.3641C43.4774 37.5814 44.547 37.1118 45.7211 37.1118C46.8951 37.1118 47.9909 37.5814 48.7475 38.3641C49.5302 39.1468 49.9998 40.2165 49.9998 41.3905C49.9998 41.834 49.6345 42.1993 49.191 42.1993C48.7475 42.1993 48.3822 41.834 48.3822 41.3905C48.3822 40.66 48.0952 39.9817 47.5995 39.5121C47.1299 39.0424 46.4516 38.7294 45.7211 38.7294C44.9906 38.7294 44.3122 39.0164 43.8426 39.5121C43.3469 39.9817 43.0599 40.66 43.0599 41.3905Z" fill="#5A0D32" />
    </g>
</svg>
