<svg width="208" height="248" viewBox="0 0 208 248" fill="none" xmlns="http://www.w3.org/2000/svg">
    <g clip-path="url(#clip0)">
        <path d="M175.911 155.928C175.567 155.928 175.247 155.854 174.926 155.658C173.966 155.117 173.646 153.913 174.188 152.954C174.286 152.758 184.826 134.225 185.787 115.447C186.821 95.194 177.561 86.2965 177.463 86.2228C176.675 85.4854 176.626 84.2319 177.364 83.4208C178.103 82.6097 179.359 82.5605 180.147 83.2979C180.591 83.6911 190.885 93.3998 189.752 115.644C188.742 135.405 178.079 154.134 177.635 154.92C177.266 155.56 176.601 155.928 175.911 155.928Z" fill="#593A26" />
        <path d="M178.423 167.062C178.201 167.824 177.93 168.635 177.265 169.029C176.6 169.422 175.468 169.004 175.542 168.242C174.95 169.225 174.162 170.257 173.03 170.479C171.897 170.7 170.567 169.446 171.158 168.463C170.788 168.93 170.419 169.397 169.877 169.643C169.36 169.889 168.621 169.84 168.277 169.373C168.055 169.078 168.03 168.709 168.03 168.34C167.907 165.612 168.178 162.884 168.868 160.229C168.227 161.09 167.587 161.974 166.651 162.491C165.715 163.007 164.459 163.105 163.671 162.392C162.859 161.679 162.809 160.352 163.277 159.369C163.745 158.386 164.607 157.649 165.444 156.96C168.671 154.306 172.044 151.75 174.778 148.579C177.61 145.285 179.925 140.812 181.551 135.847C186.451 137.641 182.806 145.924 182.24 149.562C181.353 155.486 180.073 161.335 178.423 167.062Z" fill="#593A26" />
        <path d="M183.053 95.0461H180.368C179.482 92.9323 178.374 90.8677 177.019 88.9505C169.532 78.0867 164.582 71.4013 162.514 58.4974C161.184 50.3372 154.116 44.3154 145.841 44.3154H82.6729C74.3736 44.3154 67.3302 50.3127 66.0004 58.4974C63.9071 71.4013 58.9817 78.0867 51.4951 88.9505C50.1652 90.8922 49.057 92.9323 48.1458 95.0461H45.4614V112.522C45.5353 116.479 46.2987 120.461 47.801 124.246C52.2092 135.527 62.2817 143.638 74.2751 145.531L78.0676 146.121C102.054 149.93 126.484 149.93 150.447 146.121L154.239 145.531C166.232 143.638 176.305 135.527 180.713 124.246C182.191 120.461 182.954 116.479 183.053 112.522V95.0461Z" fill="#99603B" />
        <path d="M120.771 23.1041C127.164 23.1041 132.346 17.932 132.346 11.552C132.346 5.17202 127.164 0 120.771 0C114.378 0 109.196 5.17202 109.196 11.552C109.196 17.932 114.378 23.1041 120.771 23.1041Z" fill="#C8B283" />
        <path d="M157.071 21.1621H71.4433C63.3164 21.1621 56.7163 27.7492 56.7163 35.8602C56.7163 42.0541 59.8932 47.8055 65.1141 51.1237L78.5605 59.6525H149.93L163.376 51.1237C168.597 47.8055 171.774 42.0541 171.774 35.8602C171.798 27.7492 165.223 21.1621 157.071 21.1621Z" fill="#E9CD95" />
        <path d="M145.841 32.2476H82.6975C74.4229 32.2476 67.3549 38.2448 66.025 46.3804C63.9317 59.3088 59.0063 65.9942 51.4951 76.8826C45.0674 86.198 43.7129 98.0696 47.8256 108.614C52.2339 119.896 62.3063 128.007 74.2997 129.899L78.0923 130.489C102.079 134.299 126.509 134.299 150.471 130.489L154.264 129.899C166.257 128.007 176.33 119.896 180.738 108.614C184.85 98.0941 183.471 86.198 177.068 76.8826C169.582 65.9942 164.632 59.3334 162.538 46.3804C161.209 38.2202 154.116 32.2476 145.841 32.2476Z" fill="#AF6C45" />
        <path d="M107.768 23.1041C114.16 23.1041 119.342 17.932 119.342 11.552C119.342 5.17202 114.16 0 107.768 0C101.375 0 96.1929 5.17202 96.1929 11.552C96.1929 17.932 101.375 23.1041 107.768 23.1041Z" fill="#E9CD95" />
        <path fill-rule="evenodd" clip-rule="evenodd" d="M113.629 91.0892C112.694 90.5731 111.906 89.9832 110.97 89.8603C108.556 89.5162 108.704 92.8343 109.566 94.3582C111.241 97.3568 114.319 98.807 117.373 98.7578C120.427 98.807 123.505 97.3322 125.18 94.3582C126.017 92.8343 126.189 89.5162 123.776 89.8603C122.865 90.0078 122.052 90.5731 121.116 91.0892C119.934 91.7529 118.653 92.0478 117.373 92.0232C116.092 92.0478 114.812 91.7529 113.629 91.0892Z" fill="#590D32" />
        <path fill-rule="evenodd" clip-rule="evenodd" d="M91.8097 100.749C96.5381 100.749 100.405 99.7657 100.405 98.5368C100.405 97.3324 96.5381 96.3247 91.8097 96.3247C87.0813 96.3247 83.2148 97.3079 83.2148 98.5368C83.2148 99.7412 87.0813 100.749 91.8097 100.749Z" fill="#EE8289" />
        <path fill-rule="evenodd" clip-rule="evenodd" d="M142.935 100.749C147.664 100.749 151.53 99.7657 151.53 98.5368C151.53 97.3324 147.664 96.3247 142.935 96.3247C138.207 96.3247 134.34 97.3079 134.34 98.5368C134.34 99.7412 138.182 100.749 142.935 100.749Z" fill="#EE8289" />
        <path fill-rule="evenodd" clip-rule="evenodd" d="M88.9524 80.2991C88.9524 81.356 88.0904 82.2409 87.0069 82.2409C85.9479 82.2409 85.0859 81.3806 85.0859 80.2991C85.0859 77.4972 86.2188 74.9901 88.0412 73.1467C89.8636 71.3279 92.4002 70.1973 95.2077 70.1973C98.0151 70.1973 100.527 71.3279 102.374 73.1467C104.197 74.9656 105.354 77.4972 105.354 80.2991C105.354 81.356 104.492 82.2409 103.408 82.2409C102.349 82.2409 101.463 81.3806 101.463 80.2991C101.463 78.5786 100.749 77.0056 99.6159 75.875C98.483 74.7443 96.9069 74.0561 95.183 74.0561C93.4591 74.0561 91.883 74.7443 90.7502 75.875C89.6419 77.0056 88.9524 78.5786 88.9524 80.2991Z" fill="#590D32" />
        <path fill-rule="evenodd" clip-rule="evenodd" d="M133.257 80.2991C133.257 81.356 132.395 82.2409 131.311 82.2409C130.252 82.2409 129.39 81.3806 129.39 80.2991C129.39 77.4972 130.523 74.9901 132.345 73.1467C134.168 71.3279 136.704 70.1973 139.512 70.1973C142.319 70.1973 144.831 71.3279 146.678 73.1467C148.501 74.9656 149.658 77.4972 149.658 80.2991C149.658 81.356 148.796 82.2409 147.713 82.2409C146.654 82.2409 145.767 81.3806 145.767 80.2991C145.767 78.5786 145.078 77.0056 143.92 75.875C142.787 74.7443 141.211 74.0561 139.487 74.0561C137.763 74.0561 136.187 74.7443 135.054 75.875C133.946 77.0056 133.257 78.5786 133.257 80.2991Z" fill="#590D32" />
        <path d="M201.498 240.086C201.326 240.086 201.153 240.061 200.981 240.036C199.257 239.766 198.075 238.119 198.346 236.399C198.371 236.227 187.83 181.318 183.964 167.16C179.95 152.438 148.944 140.296 148.87 140.222C147.787 138.846 148.008 136.855 149.387 135.773C150.766 134.692 152.761 134.913 153.845 136.289C154.19 136.707 185.712 149.464 190.096 165.513C194.332 181.023 204.749 236.694 204.626 237.456C204.38 238.98 203.025 240.086 201.498 240.086Z" fill="#593A26" />
        <path d="M198.962 235.44C198.962 235.44 194.356 235.318 190.687 236.94C186.968 238.587 184.161 242.028 184.259 243.281C184.432 245.764 207.754 246.648 208 243.134C208.246 239.619 203.616 234.703 203.616 234.703L198.962 235.44Z" fill="#593A26" />
        <path d="M155.569 243.109C155.397 243.109 155.224 243.084 155.052 243.059C153.328 242.789 152.146 241.142 152.417 239.422C152.441 239.25 141.901 184.341 138.035 170.183C134.02 155.461 103.015 143.319 102.941 143.245C101.857 141.868 102.079 139.878 103.458 138.796C104.837 137.715 106.832 137.936 107.916 139.312C108.26 139.73 139.783 152.487 144.167 168.536C148.403 184.046 158.82 239.717 158.697 240.479C158.45 242.002 157.096 243.109 155.569 243.109Z" fill="#593A26" />
        <path d="M158.697 237.972C158.697 237.972 163.302 237.849 166.971 239.471C170.69 241.118 173.497 244.559 173.399 245.812C173.226 248.295 149.905 249.18 149.658 245.665C149.412 242.15 154.042 237.234 154.042 237.234L158.697 237.972Z" fill="#593A26" />
        <path d="M30.365 120.584C28.1732 120.584 25.8829 120.461 23.4694 120.166C-8.29947 116.307 1.52672 86.075 1.18194 85.0181C0.837163 83.8875 2.06852 82.6831 3.22599 82.3145C4.35883 81.9703 5.56556 82.5848 5.93496 83.74C6.23049 84.674 -5.5905 110.433 24.0112 115.889C43.6143 119.527 55.657 103.034 55.7801 102.936C56.6913 102.174 58.0458 102.272 58.8092 103.182C59.5727 104.091 59.4742 105.443 58.563 106.205C58.0704 106.623 47.8994 120.584 30.365 120.584Z" fill="#593A26" />
        <path d="M6.62479 56.7524C6.87106 55.9413 7.19121 55.0565 7.9054 54.6387C8.64421 54.2208 9.87556 54.6878 9.75242 55.5235C10.4174 54.4666 11.2793 53.3606 12.5353 53.1394C13.7666 52.9182 15.195 54.2946 14.5301 55.376C14.9241 54.8845 15.3674 54.3683 15.9338 54.1225C16.5249 53.8521 17.2883 53.9259 17.6577 54.442C17.8793 54.7616 17.904 55.1794 17.9286 55.5481C18.0271 58.4975 16.1308 63.5608 15.3428 66.4119C16.0569 65.5025 20.7607 64.4948 21.0316 65.6254C21.6227 68.2062 16.6234 70.6149 15.7122 71.3522C12.1659 74.2034 5.78747 80.8397 4.0882 91.384C-1.20661 89.3439 1.52699 79.6353 2.19192 75.6781C3.25088 69.2876 4.72851 62.9709 6.62479 56.7524Z" fill="#593A26" />
        <path d="M59.5479 111.907C59.4987 111.907 59.474 111.907 59.4248 111.907C59.08 111.833 58.883 111.514 58.9322 111.194C58.9322 111.145 59.7942 106.622 58.5382 104.435C57.1345 102.026 53.5143 101.363 53.4897 101.363C53.1449 101.313 52.9232 100.994 52.9971 100.65C53.0464 100.306 53.3665 100.084 53.7113 100.158C53.8837 100.183 57.9225 100.92 59.6218 103.82C61.124 106.401 60.2128 111.219 60.1636 111.415C60.0897 111.686 59.8434 111.907 59.5479 111.907Z" fill="#593A26" />
    </g>
    <defs>
        <clipPath id="clip0">
            <rect width="208" height="248" fill="white" />
        </clipPath>
    </defs>
</svg>
