<svg width="29" height="23" viewBox="0 0 29 23" fill="none" xmlns="http://www.w3.org/2000/svg">
<g clip-path="url(#clip0)">
<path d="M19.1232 11.5002C18.364 11.5002 17.6498 11.0959 17.2634 10.449L14.3749 5.66035L11.491 10.449C11.1001 11.1004 10.3859 11.5047 9.62671 11.5047C9.42456 11.5047 9.22241 11.4777 9.02925 11.4193L2.87495 9.6584V17.6545C2.87495 18.3148 3.32417 18.8898 3.96206 19.0471L13.6742 21.4773C14.1324 21.5896 14.613 21.5896 15.0667 21.4773L24.7878 19.0471C25.4257 18.8854 25.8749 18.3104 25.8749 17.6545V9.6584L19.7207 11.4148C19.5275 11.4732 19.3253 11.5002 19.1232 11.5002ZM28.6736 6.45996L26.3601 1.84199C26.2208 1.56348 25.9199 1.40176 25.6099 1.44219L14.3749 2.8752L18.4943 9.70781C18.665 9.99082 19.0064 10.1256 19.3253 10.0357L28.2154 7.49766C28.6601 7.36738 28.8757 6.87324 28.6736 6.45996ZM2.38979 1.84199L0.0763154 6.45996C-0.130325 6.87324 0.089792 7.36738 0.530026 7.49316L9.42006 10.0312C9.73901 10.1211 10.0804 9.98633 10.2511 9.70332L14.3749 2.8752L3.1355 1.44219C2.82553 1.40625 2.52905 1.56348 2.38979 1.84199Z" fill="white"/>
</g>
<defs>
<clipPath id="clip0">
<rect width="28.75" height="23" fill="white"/>
</clipPath>
</defs>
</svg>
