<svg width="17" height="17" viewBox="0 0 17 17" fill="none" xmlns="http://www.w3.org/2000/svg">
    <path fill-rule="evenodd" clip-rule="evenodd" d="M8.33333 0C3.73083 0 0 3.73083 0 8.33333C0 12.9358 3.73083 16.6667 8.33333 16.6667C12.9358 16.6667 16.6667 12.9358 16.6667 8.33333C16.6667 3.73083 12.9358 0 8.33333 0ZM8.33333 1.66667V5C7.44928 5 6.60143 5.35119 5.97631 5.97631C5.35119 6.60143 5 7.44928 5 8.33333C5 9.21739 5.35119 10.0652 5.97631 10.6904C6.60143 11.3155 7.44928 11.6667 8.33333 11.6667V15C10.1014 15 11.7971 14.2976 13.0474 13.0474C14.2976 11.7971 15 10.1014 15 8.33333C15 6.56522 14.2976 4.86953 13.0474 3.61929C11.7971 2.36905 10.1014 1.66667 8.33333 1.66667Z" fill="current" />
</svg>
