<svg width="39" height="36" viewBox="0 0 39 36" fill="none" xmlns="http://www.w3.org/2000/svg">
<path d="M35.3309 16.4999C35.3309 16.3349 35.2341 16.1699 35.1857 16.0049C35.111 15.7138 35.0139 15.4281 34.8953 15.1499C34.8146 14.9699 34.7017 14.7899 34.6049 14.5949C34.5081 14.3999 34.3629 14.1449 34.2177 13.9349C34.0725 13.7249 33.8789 13.6199 33.8789 13.4999C33.8789 13.3799 33.5563 13.1249 33.3788 12.9449C33.2013 12.7649 33.04 12.6449 32.8625 12.4949L32.2656 11.9999L31.6848 11.6399C31.4569 11.5102 31.2197 11.3949 30.975 11.2949L30.3458 11.0249C30.0823 10.9342 29.8129 10.859 29.5392 10.7999C29.3224 10.7406 29.1013 10.6955 28.8777 10.6649H28.5873C27.9659 8.86382 26.75 7.29053 25.1122 6.16851C23.4744 5.04648 21.498 4.43275 19.4638 4.41448C17.4295 4.39622 15.4408 4.97434 13.78 6.06675C12.1192 7.15916 10.8708 8.71032 10.2121 10.4999H9.92168C9.69808 10.5305 9.47706 10.5756 9.26023 10.6349C8.98652 10.694 8.7171 10.7692 8.45359 10.8599L7.82441 11.1299C7.57972 11.2299 7.34256 11.3452 7.11457 11.4749L6.53379 11.9999L5.93688 12.4649C5.75941 12.6149 5.58195 12.7499 5.42062 12.9149C5.2593 13.0799 5.08184 13.2899 4.92051 13.4699C4.75918 13.6499 4.63012 13.8149 4.50105 14.0099C4.37199 14.2049 4.24293 14.4449 4.11387 14.6699C3.9848 14.8949 3.90414 15.0449 3.82348 15.2249C3.70481 15.5031 3.60776 15.7888 3.53309 16.0799C3.53309 16.2449 3.42016 16.4099 3.38789 16.5749C3.28747 17.0444 3.23347 17.5213 3.22656 17.9999C3.23413 18.4579 3.28269 18.9145 3.37176 19.3649C3.37176 19.5149 3.45242 19.6499 3.48469 19.7999C3.56443 20.0946 3.66137 20.385 3.77508 20.6699L3.96867 21.1049C4.11069 21.3942 4.27234 21.6748 4.45266 21.9449L4.67852 22.2749C4.70173 22.317 4.72871 22.3571 4.75918 22.3949L4.83984 22.4999C5.59121 23.4314 6.5655 24.1874 7.68556 24.7081C8.80563 25.2288 10.0407 25.4999 11.293 25.4999C11.2966 24.7056 11.6389 23.945 12.2448 23.3849C12.8471 22.8215 13.6652 22.5033 14.5195 22.4999C15.087 22.495 15.6451 22.6351 16.1328 22.9049V17.9999C16.1328 17.2043 16.4728 16.4412 17.0779 15.8786C17.6829 15.316 18.5036 14.9999 19.3594 14.9999C20.2151 14.9999 21.0358 15.316 21.6409 15.8786C22.246 16.4412 22.5859 17.2043 22.5859 17.9999V23.0549C23.0761 22.7905 23.6325 22.6509 24.1992 22.6499C25.0732 22.6575 25.9084 22.9865 26.5223 23.5649C27.0655 24.087 27.3865 24.7745 27.4258 25.4999C28.6781 25.4999 29.9131 25.2288 31.0332 24.7081C32.1533 24.1874 33.1275 23.4314 33.8789 22.4999L33.9596 22.4249C33.99 22.3871 34.017 22.347 34.0402 22.3049L34.2661 21.9749C34.4464 21.7048 34.6081 21.4242 34.7501 21.1349L34.9437 20.6999C35.0574 20.415 35.1543 20.1246 35.2341 19.8299C35.2341 19.6799 35.3147 19.5449 35.347 19.3949C35.4379 18.9346 35.4864 18.4679 35.4922 17.9999C35.4903 17.4963 35.4363 16.994 35.3309 16.4999Z" fill="white"/>
<path d="M23.0858 24.57L20.9724 26.46V18C20.9724 17.6022 20.8024 17.2206 20.4999 16.9393C20.1974 16.658 19.787 16.5 19.3591 16.5C18.9313 16.5 18.5209 16.658 18.2184 16.9393C17.9158 17.2206 17.7459 17.6022 17.7459 18V26.385L15.6647 24.435C15.5143 24.2951 15.3357 24.1842 15.1392 24.1085C14.9427 24.0328 14.732 23.9939 14.5193 23.9939C14.3066 23.9939 14.0959 24.0328 13.8994 24.1085C13.7029 24.1842 13.5243 24.2951 13.3739 24.435C13.2234 24.5749 13.1041 24.7409 13.0227 24.9236C12.9413 25.1064 12.8994 25.3022 12.8994 25.5C12.8994 25.6978 12.9413 25.8936 13.0227 26.0764C13.1041 26.2591 13.2234 26.4251 13.3739 26.565L18.2137 31.065C18.3645 31.204 18.5432 31.314 18.7398 31.3887C18.9363 31.4633 19.1468 31.5011 19.3591 31.5C19.7745 31.4985 20.1732 31.348 20.4723 31.08L25.3121 26.73C25.4833 26.5987 25.6235 26.4359 25.724 26.2519C25.8244 26.0679 25.8829 25.8666 25.8959 25.6606C25.9088 25.4546 25.8759 25.2483 25.7992 25.0546C25.7225 24.861 25.6037 24.6842 25.4501 24.5352C25.2966 24.3862 25.1116 24.2683 24.9068 24.1888C24.702 24.1093 24.4817 24.07 24.2598 24.0732C24.0379 24.0765 23.8191 24.1223 23.6171 24.2078C23.4151 24.2933 23.2342 24.4166 23.0858 24.57Z" fill="white"/>
<path d="M35.3309 16.4999C35.3309 16.3349 35.2341 16.1699 35.1857 16.0049C35.111 15.7138 35.0139 15.4281 34.8953 15.1499C34.8146 14.9699 34.7017 14.7899 34.6049 14.5949C34.5081 14.3999 34.3629 14.1449 34.2177 13.9349C34.0725 13.7249 33.8789 13.6199 33.8789 13.4999C33.8789 13.3799 33.5563 13.1249 33.3788 12.9449C33.2013 12.7649 33.04 12.6449 32.8625 12.4949L32.2656 11.9999L31.6848 11.6399C31.4569 11.5102 31.2197 11.3949 30.975 11.2949L30.3458 11.0249C30.0823 10.9342 29.8129 10.859 29.5392 10.7999C29.3224 10.7406 29.1013 10.6955 28.8777 10.6649H28.5873C27.9659 8.86382 26.75 7.29053 25.1122 6.16851C23.4744 5.04648 21.498 4.43275 19.4638 4.41448C17.4295 4.39622 15.4408 4.97434 13.78 6.06675C12.1192 7.15916 10.8708 8.71032 10.2121 10.4999H9.92168C9.69808 10.5305 9.47706 10.5756 9.26023 10.6349C8.98652 10.694 8.7171 10.7692 8.45359 10.8599L7.82441 11.1299C7.57972 11.2299 7.34256 11.3452 7.11457 11.4749L6.53379 11.9999L5.93688 12.4649C5.75941 12.6149 5.58195 12.7499 5.42062 12.9149C5.2593 13.0799 5.08184 13.2899 4.92051 13.4699C4.75918 13.6499 4.63012 13.8149 4.50105 14.0099C4.37199 14.2049 4.24293 14.4449 4.11387 14.6699C3.9848 14.8949 3.90414 15.0449 3.82348 15.2249C3.70481 15.5031 3.60776 15.7888 3.53309 16.0799C3.53309 16.2449 3.42016 16.4099 3.38789 16.5749C3.28747 17.0444 3.23347 17.5213 3.22656 17.9999C3.23413 18.4579 3.28269 18.9145 3.37176 19.3649C3.37176 19.5149 3.45242 19.6499 3.48469 19.7999C3.56443 20.0946 3.66137 20.385 3.77508 20.6699L3.96867 21.1049C4.11069 21.3942 4.27234 21.6748 4.45266 21.9449L4.67852 22.2749C4.70173 22.317 4.72871 22.3571 4.75918 22.3949L4.83984 22.4999C5.59121 23.4314 6.5655 24.1874 7.68556 24.7081C8.80563 25.2288 10.0407 25.4999 11.293 25.4999C11.2966 24.7056 11.6389 23.945 12.2448 23.3849C12.8471 22.8215 13.6652 22.5033 14.5195 22.4999C15.087 22.495 15.6451 22.6351 16.1328 22.9049V17.9999C16.1328 17.2043 16.4728 16.4412 17.0779 15.8786C17.6829 15.316 18.5036 14.9999 19.3594 14.9999C20.2151 14.9999 21.0358 15.316 21.6409 15.8786C22.246 16.4412 22.5859 17.2043 22.5859 17.9999V23.0549C23.0761 22.7905 23.6325 22.6509 24.1992 22.6499C25.0732 22.6575 25.9084 22.9865 26.5223 23.5649C27.0655 24.087 27.3865 24.7745 27.4258 25.4999C28.6781 25.4999 29.9131 25.2288 31.0332 24.7081C32.1533 24.1874 33.1275 23.4314 33.8789 22.4999L33.9596 22.4249C33.99 22.3871 34.017 22.347 34.0402 22.3049L34.2661 21.9749C34.4464 21.7048 34.6081 21.4242 34.7501 21.1349L34.9437 20.6999C35.0574 20.415 35.1543 20.1246 35.2341 19.8299C35.2341 19.6799 35.3147 19.5449 35.347 19.3949C35.4379 18.9346 35.4864 18.4679 35.4922 17.9999C35.4903 17.4963 35.4363 16.994 35.3309 16.4999Z" fill="white"/>
<path d="M23.0858 24.57L20.9724 26.46V18C20.9724 17.6022 20.8024 17.2206 20.4999 16.9393C20.1974 16.658 19.787 16.5 19.3591 16.5C18.9313 16.5 18.5209 16.658 18.2184 16.9393C17.9158 17.2206 17.7459 17.6022 17.7459 18V26.385L15.6647 24.435C15.5143 24.2951 15.3357 24.1842 15.1392 24.1085C14.9427 24.0328 14.732 23.9939 14.5193 23.9939C14.3066 23.9939 14.0959 24.0328 13.8994 24.1085C13.7029 24.1842 13.5243 24.2951 13.3739 24.435C13.2234 24.5749 13.1041 24.7409 13.0227 24.9236C12.9413 25.1064 12.8994 25.3022 12.8994 25.5C12.8994 25.6978 12.9413 25.8936 13.0227 26.0764C13.1041 26.2591 13.2234 26.4251 13.3739 26.565L18.2137 31.065C18.3645 31.204 18.5432 31.314 18.7398 31.3887C18.9363 31.4633 19.1468 31.5011 19.3591 31.5C19.7745 31.4985 20.1732 31.348 20.4723 31.08L25.3121 26.73C25.4833 26.5987 25.6235 26.4359 25.724 26.2519C25.8244 26.0679 25.8829 25.8666 25.8959 25.6606C25.9088 25.4546 25.8759 25.2483 25.7992 25.0546C25.7225 24.861 25.6037 24.6842 25.4501 24.5352C25.2966 24.3862 25.1116 24.2683 24.9068 24.1888C24.702 24.1093 24.4817 24.07 24.2598 24.0732C24.0379 24.0765 23.8191 24.1223 23.6171 24.2078C23.4151 24.2933 23.2342 24.4166 23.0858 24.57Z" fill="white"/>
</svg>
