<svg width="136" height="95" viewBox="0 0 136 95" fill="none" xmlns="http://www.w3.org/2000/svg">
<path d="M40.8 47.5C53.9538 47.5 64.6 36.8761 64.6 23.75C64.6 10.6239 53.9538 0 40.8 0C27.6463 0 17 10.6239 17 23.75C17 36.8761 27.6463 47.5 40.8 47.5ZM57.12 54.2857H55.3563C50.9363 56.4063 46.0275 57.6786 40.8 57.6786C35.5725 57.6786 30.685 56.4063 26.2438 54.2857H24.48C10.965 54.2857 0 65.2277 0 78.7143V84.8214C0 90.4408 4.56875 95 10.2 95H71.4C77.0312 95 81.6 90.4408 81.6 84.8214V78.7143C81.6 65.2277 70.635 54.2857 57.12 54.2857ZM102 47.5C113.263 47.5 122.4 38.3817 122.4 27.1429C122.4 15.904 113.263 6.78571 102 6.78571C90.7375 6.78571 81.6 15.904 81.6 27.1429C81.6 38.3817 90.7375 47.5 102 47.5ZM112.2 54.2857H111.393C108.439 55.3036 105.315 55.9821 102 55.9821C98.685 55.9821 95.5613 55.3036 92.6075 54.2857H91.8C87.465 54.2857 83.47 55.5368 79.9638 57.5513C85.1488 63.1283 88.4 70.529 88.4 78.7143V86.8571C88.4 87.3237 88.2938 87.769 88.2725 88.2143H125.8C131.431 88.2143 136 83.6551 136 78.0357C136 64.9096 125.354 54.2857 112.2 54.2857Z" fill="#33787B"/>
</svg>
