<svg width="29" height="23" viewBox="0 0 29 23" fill="none" xmlns="http://www.w3.org/2000/svg">
<g clip-path="url(#clip0)">
<path d="M28.3545 4.33496L19.6082 0C18.7052 1.24883 16.7062 2.12031 14.3748 2.12031C12.0433 2.12031 10.0443 1.24883 9.14138 0L0.395089 4.33496C0.0402058 4.51465 -0.103544 4.9459 0.0716511 5.30078L2.64118 10.4443C2.82087 10.7992 3.25212 10.943 3.607 10.7678L6.14958 9.52344C6.62575 9.28984 7.18278 9.63574 7.18278 10.1703V21.5625C7.18278 22.3576 7.82517 23 8.62028 23H20.1203C20.9154 23 21.5578 22.3576 21.5578 21.5625V10.1658C21.5578 9.63574 22.1148 9.28535 22.591 9.51894L25.1336 10.7633C25.4884 10.943 25.9197 10.7992 26.0994 10.4398L28.6734 5.30078C28.8531 4.9459 28.7093 4.51016 28.3545 4.33496Z" fill="white"/>
</g>
<defs>
<clipPath id="clip0">
<rect width="28.75" height="23" fill="white"/>
</clipPath>
</defs>
</svg>
