<svg width="95" height="95" viewBox="0 0 95 95" fill="none" xmlns="http://www.w3.org/2000/svg">
<path d="M74.0584 47.1794C85.4471 47.1794 94.6794 41.9345 94.6794 35.4647C94.6794 28.9948 85.4471 23.75 74.0584 23.75C62.6698 23.75 53.4375 28.9948 53.4375 35.4647C53.4375 41.9345 62.6698 47.1794 74.0584 47.1794Z" fill="#33787B"/>
<path fill-rule="evenodd" clip-rule="evenodd" d="M74.3673 53.9185C59.6185 53.9185 53.7463 47.7375 53.7463 44.1572V59.4938C53.7463 65.9657 62.9791 71.2025 74.3673 71.2025C85.7673 71.2025 95.0001 65.9657 95.0001 59.4938V44.5254C95.0001 48.1116 89.122 53.9185 74.3673 53.9185Z" fill="#33787B"/>
<path fill-rule="evenodd" clip-rule="evenodd" d="M74.3673 77.615C61.1741 77.615 53.7463 71.6716 53.7463 68.0913V83.2854C53.7463 89.7572 62.9791 95 74.3673 95C85.7673 95 95.0001 89.7572 95.0001 83.2854V67.9072C95.0001 71.4875 87.5663 77.615 74.3673 77.615Z" fill="#33787B"/>
<path d="M23.3759 23.4294C36.2861 23.4294 46.7519 18.1845 46.7519 11.7147C46.7519 5.24484 36.2861 0 23.3759 0C10.4658 0 0 5.24484 0 11.7147C0 18.1845 10.4658 23.4294 23.3759 23.4294Z" fill="#33787B"/>
<path fill-rule="evenodd" clip-rule="evenodd" d="M24.1181 30.1685C7.40406 30.1685 0.742188 23.9875 0.742188 20.4072V35.7438C0.742188 42.2157 11.21 47.4525 24.1181 47.4525C37.0381 47.4525 47.5 42.2157 47.5 35.7438V20.7754C47.5 24.3616 40.8322 30.1685 24.1181 30.1685Z" fill="#33787B"/>
<path fill-rule="evenodd" clip-rule="evenodd" d="M24.1181 53.865C9.16156 53.865 0.742188 47.9216 0.742188 44.3413V59.5354C0.742188 66.0072 11.21 71.25 24.1181 71.25C37.0381 71.25 47.5 66.0072 47.5 59.5354V44.1572C47.5 47.7375 39.0687 53.865 24.1181 53.865Z" fill="#33787B"/>
<path fill-rule="evenodd" clip-rule="evenodd" d="M24.1181 77.615C9.16156 77.615 0.742188 71.6716 0.742188 68.0913V83.2854C0.742187 89.7572 11.21 95 24.1181 95C37.0381 95 47.5 89.7572 47.5 83.2854V67.9072C47.5 71.4875 39.0687 77.615 24.1181 77.615Z" fill="#33787B"/>
</svg>
