<svg width="34" height="24" viewBox="0 0 34 24" fill="none" xmlns="http://www.w3.org/2000/svg">
<path d="M27.5 10.5C27.5 4.695 22.805 0 17 0C14.701 0.0011441 12.4661 0.757874 10.6393 2.1537C8.81254 3.54953 7.49517 5.50707 6.89 7.725C5.07411 8.14245 3.45346 9.16338 2.29281 10.621C1.13217 12.0786 0.500149 13.8867 0.5 15.75C0.5 20.31 4.19 24 8.75 24H26.75C30.485 23.985 33.5 20.955 33.5 17.22C33.5 13.725 30.875 10.89 27.5 10.5ZM13.46 18.435L10.28 15.255C10.1411 15.1161 10.031 14.9513 9.95581 14.7698C9.88065 14.5884 9.84197 14.3939 9.84197 14.1975C9.84197 13.8009 9.99953 13.4205 10.28 13.14C10.5605 12.8595 10.9409 12.702 11.3375 12.702C11.7341 12.702 12.1145 12.8595 12.395 13.14L14.51 15.255L19.82 9.945C19.9589 9.80613 20.1237 9.69597 20.3052 9.62081C20.4866 9.54565 20.6811 9.50697 20.8775 9.50697C21.0739 9.50697 21.2684 9.54565 21.4498 9.62081C21.6313 9.69597 21.7961 9.80613 21.935 9.945C22.0739 10.0839 22.184 10.2487 22.2592 10.4302C22.3343 10.6116 22.373 10.8061 22.373 11.0025C22.373 11.1989 22.3343 11.3934 22.2592 11.5748C22.184 11.7563 22.0739 11.9211 21.935 12.06L15.575 18.42C14.99 19.02 14.045 19.02 13.46 18.435Z" fill="white"/>
</svg>
