<svg width="24" height="24" viewBox="0 0 24 24" fill="none" xmlns="http://www.w3.org/2000/svg">
<path d="M23.9279 21.8462L16.1369 14.2052C17.3459 12.6723 17.9999 10.7981 17.9999 8.82677C17.9999 6.46708 17.0609 4.2545 15.3629 2.58624C13.6649 0.917984 11.403 0 8.99996 0C6.59697 0 4.33498 0.920926 2.63699 2.58624C0.935996 4.25156 0 6.46708 0 8.82677C0 11.1835 0.938996 13.402 2.63699 15.0673C4.33498 16.7355 6.59397 17.6535 8.99996 17.6535C11.01 17.6535 12.9179 17.0121 14.4809 15.8293L22.2719 23.4674C22.2947 23.4898 22.3219 23.5076 22.3517 23.5198C22.3816 23.5319 22.4136 23.5381 22.4459 23.5381C22.4782 23.5381 22.5102 23.5319 22.5401 23.5198C22.5699 23.5076 22.5971 23.4898 22.6199 23.4674L23.9279 22.1875C23.9508 22.1651 23.9689 22.1385 23.9813 22.1093C23.9936 22.08 24 22.0486 24 22.0169C24 21.9852 23.9936 21.9538 23.9813 21.9245C23.9689 21.8953 23.9508 21.8687 23.9279 21.8462ZM13.7519 13.4873C12.4799 14.7319 10.794 15.4174 8.99996 15.4174C7.20597 15.4174 5.51998 14.7319 4.24798 13.4873C2.97899 12.2398 2.27999 10.5862 2.27999 8.82677C2.27999 7.0673 2.97899 5.41081 4.24798 4.16623C5.51998 2.92166 7.20597 2.23611 8.99996 2.23611C10.794 2.23611 12.4829 2.91872 13.7519 4.16623C15.0209 5.41375 15.7199 7.0673 15.7199 8.82677C15.7199 10.5862 15.0209 12.2427 13.7519 13.4873Z" fill="white"/>
</svg>
