<svg width="34" height="34" viewBox="0 0 34 34" fill="none" xmlns="http://www.w3.org/2000/svg">
<path d="M19.8337 25.5002C17.3191 25.4996 14.877 24.6579 12.8962 23.1088L6.66858 29.3365L4.66541 27.3333L10.8931 21.1057C9.34324 19.1247 8.50093 16.682 8.50032 14.1668C8.50032 7.91791 13.5847 2.8335 19.8337 2.8335C26.0826 2.8335 31.167 7.91791 31.167 14.1668C31.167 20.4157 26.0826 25.5002 19.8337 25.5002ZM19.8337 5.66683C15.1459 5.66683 11.3337 9.47908 11.3337 14.1668C11.3337 18.8546 15.1459 22.6668 19.8337 22.6668C24.5214 22.6668 28.3337 18.8546 28.3337 14.1668C28.3337 9.47908 24.5214 5.66683 19.8337 5.66683Z" fill="#343434"/>
<path d="M17.8331 12.1634C17.2962 12.7017 17.0001 13.4129 17.0001 14.1665H14.1667C14.1655 13.422 14.3118 12.6846 14.5973 11.9969C14.8828 11.3092 15.3017 10.685 15.8299 10.1602C17.9747 8.01821 21.6935 8.01821 23.8369 10.1602L21.8366 12.1662C20.7599 11.0924 18.9041 11.0952 17.8331 12.1634Z" fill="#343434"/>
</svg>
