<svg width="87" height="94" viewBox="0 0 87 94" fill="none" xmlns="http://www.w3.org/2000/svg">
<path d="M47.3178 94C64.9153 94 80.7383 84.4355 89 69.0242L52.0495 47L89 24.9758C80.7383 9.5645 64.9153 0 47.3178 0C21.2268 0 0 21.0842 0 47C0 72.9158 21.2268 94 47.3178 94ZM44.9519 18.8C46.8349 18.8006 48.6406 19.5442 49.9717 20.8672C51.3027 22.1903 52.0502 23.9843 52.0495 25.8547C52.0489 27.7251 51.3003 29.5186 49.9683 30.8408C48.6364 32.1629 46.8302 32.9053 44.9472 32.9047C43.0641 32.9041 41.2584 32.1605 39.9274 30.8375C38.5963 29.5144 37.8489 27.7204 37.8495 25.85C37.8501 23.9796 38.5988 22.1861 39.9307 20.8639C41.2627 19.5418 43.0688 18.7994 44.9519 18.8Z" fill="#33787B"/>
</svg>
