<svg width="95" height="95" viewBox="0 0 95 95" fill="none" xmlns="http://www.w3.org/2000/svg">
<path d="M79.6906 11.1783L94.49 66.7883C94.9989 68.7012 95.1286 70.6962 94.8717 72.6595C94.6149 74.6228 93.9765 76.516 92.9931 78.2308C92.0097 79.9457 90.7004 81.4487 89.1402 82.654C87.5799 83.8593 85.7991 84.7433 83.8996 85.2556L49.7216 94.4837C47.8214 94.9978 45.8391 95.1296 43.8883 94.8718C41.9374 94.6139 40.0561 93.9714 38.352 92.981C36.6478 91.9905 35.1542 90.6716 33.9566 89.0995C32.7589 87.5274 31.8807 85.7331 31.3721 83.819L16.5781 28.2089C16.0693 26.2961 15.9396 24.3011 16.1964 22.3377C16.4533 20.3744 17.0916 18.4813 18.0751 16.7664C19.0585 15.0516 20.3677 13.5486 21.928 12.3433C23.4883 11.1379 25.269 10.2539 27.1686 9.74169L61.352 0.513559C63.2515 0.00114032 65.2327 -0.129477 67.1823 0.129166C69.1319 0.387809 71.0119 1.03065 72.7148 2.02097C74.4177 3.01129 75.9103 4.32971 77.1072 5.90093C78.3041 7.47215 79.182 9.2654 79.6906 11.1783ZM44.636 27.7374C44.4538 27.0389 44.1364 26.3834 43.702 25.8088C43.2676 25.2342 42.7248 24.7516 42.1046 24.3888C41.4845 24.0261 40.7993 23.7902 40.0884 23.6949C39.3775 23.5996 38.6549 23.6466 37.9621 23.8333C37.2693 24.02 36.6199 24.3427 36.0513 24.7828C35.4827 25.2229 35.006 25.7718 34.6487 26.398C34.2913 27.0242 34.0604 27.7153 33.969 28.4316C33.8777 29.1479 33.9277 29.8754 34.1163 30.5722C34.4904 31.9769 35.4032 33.1746 36.6541 33.9016C37.905 34.6286 39.3914 34.8254 40.7864 34.4487C42.1814 34.0721 43.3707 33.1528 44.0926 31.8932C44.8146 30.6335 45.01 29.1367 44.636 27.7319V27.7374ZM16.5237 49.2094L26.1177 85.2336C27.0603 88.805 28.9456 92.0526 31.5736 94.6317L29.1614 94.5002C25.1961 94.2904 21.4758 92.5032 18.8189 89.5315C16.162 86.5598 14.786 82.6471 14.9937 78.6539L16.5237 49.2094ZM11.4871 41.1053L9.55415 78.3687C9.35269 82.196 10.2075 85.8368 11.8628 89.006L9.6086 88.1233C7.77267 87.4137 6.09351 86.347 4.667 84.9839C3.24049 83.6208 2.09457 81.9882 1.29468 80.1791C0.494797 78.37 0.0566052 76.42 0.00513091 74.4404C-0.0463434 72.4608 0.289908 70.4904 0.994684 68.6416L11.4871 41.1053Z" fill="#33787B"/>
</svg>
