<svg width="34" height="34" viewBox="0 0 34 34" xmlns="http://www.w3.org/2000/svg">
    <path d="M25.7497 18.6668C25.7497 19.2194 25.5302 19.7493 25.1395 20.14C24.7488 20.5307 24.2189 20.7502 23.6663 20.7502C23.1138 20.7502 22.5839 20.5307 22.1932 20.14C21.8025 19.7493 21.583 19.2194 21.583 18.6668C21.583 18.1143 21.8025 17.5844 22.1932 17.1937C22.5839 16.803 23.1138 16.5835 23.6663 16.5835C24.2189 16.5835 24.7488 16.803 25.1395 17.1937C25.5302 17.5844 25.7497 18.1143 25.7497 18.6668ZM33.6663 17.0002C33.6663 26.1668 26.1663 33.6668 16.9997 33.6668H0.333008V17.0002C0.333008 7.8335 7.83301 0.333496 16.9997 0.333496C26.1663 0.333496 33.6663 7.8335 33.6663 17.0002ZM8.66634 27.0002C11.0163 29.0502 13.6663 30.3335 16.9997 30.3335C24.3497 30.3335 30.333 24.3502 30.333 17.0002C30.333 15.6835 30.133 14.4168 29.783 13.2335C28.583 13.5168 27.333 13.6668 26.033 13.6668C22.6997 13.6668 19.6163 12.6668 16.9997 10.9835C16.9997 10.9835 14.5663 19.9335 10.383 18.6668C9.28301 18.3335 8.66634 19.1835 8.66634 20.3335" fill="current" />
</svg>
