<svg width="51" height="51" viewBox="0 0 51 51" fill="none" xmlns="http://www.w3.org/2000/svg">
<path d="M25.5 0C39.5836 0 51 11.4164 51 25.5C51 39.5836 39.5836 51 25.5 51C11.4164 51 0 39.5836 0 25.5C0 11.4164 11.4164 0 25.5 0ZM17.3986 34.0247C16.3914 32.8083 15.1393 32.3748 13.6272 32.7267L13.2447 32.8312L11.7402 35.4221C11.4565 35.884 11.3625 36.4378 11.4779 36.9675C11.5934 37.4971 11.9094 37.9616 12.3596 38.2635C12.8099 38.5654 13.3595 38.6814 13.8933 38.5872C14.4272 38.4929 14.9039 38.1957 15.2235 37.7578L15.3816 37.5207L17.3961 34.0247H17.3986ZM28.5855 16.983C27.3411 18.0132 26.0865 21.0553 27.846 24.0898L35.598 37.5181C35.8664 37.9743 36.2972 38.3124 36.8041 38.4648C37.311 38.6172 37.8567 38.5726 38.3322 38.34C38.8077 38.1074 39.1779 37.704 39.3688 37.2103C39.5596 36.7166 39.5572 36.169 39.3618 35.6771L39.2368 35.4221L37.1917 31.8724H40.2262C40.5019 31.8731 40.775 31.8193 41.0298 31.714C41.2846 31.6088 41.516 31.4542 41.7108 31.2591C41.9056 31.0641 42.06 30.8324 42.1649 30.5775C42.2699 30.3226 42.3234 30.0495 42.3223 29.7738C42.3237 29.2625 42.1376 28.7684 41.7993 28.3849C41.461 28.0015 40.9939 27.7554 40.4864 27.693L40.2237 27.6777H34.7667L29.172 17.9953L28.5855 16.9855V16.983ZM29.2944 9.2208C28.854 8.96786 28.337 8.88274 27.8388 8.98116C27.3406 9.07959 26.8948 9.3549 26.5837 9.7563L26.4256 9.9909L25.4898 11.6051L24.5744 9.9909C24.3059 9.5347 23.8752 9.19663 23.3683 9.04426C22.8614 8.89189 22.3156 8.93645 21.8401 9.16904C21.3647 9.40162 20.9945 9.80509 20.8036 10.2988C20.6127 10.7925 20.6152 11.3401 20.8106 11.832L20.9355 12.087L23.0724 15.8023L16.2256 27.6675H10.8783C10.6028 27.6668 10.33 27.7206 10.0754 27.8257C9.82075 27.9308 9.58941 28.0852 9.39463 28.2799C9.19986 28.4747 9.04549 28.706 8.94039 28.9607C8.83529 29.2153 8.78153 29.4881 8.7822 29.7636C8.7822 30.8371 9.5778 31.7169 10.6157 31.847L10.8783 31.8622H29.9523C30.8193 30.2302 29.7993 27.9123 27.8868 27.6854L27.5782 27.6675H21.0681L30.0645 12.087C30.3424 11.6048 30.4175 11.0319 30.273 10.4944C30.1286 9.9569 29.7766 9.49877 29.2944 9.2208Z" fill="white"/>
</svg>
