<svg width="593" height="709" viewBox="0 0 593 709" fill="none" xmlns="http://www.w3.org/2000/svg">
        <g clip-path="url(#clip0)">
                <path d="M91.4831 445.779C92.4661 445.779 93.3788 445.568 94.2916 445.006C97.0298 443.46 97.9425 440.017 96.3979 437.276C96.117 436.714 66.0668 383.732 63.3286 330.048C60.3797 272.147 86.779 246.711 87.0599 246.5C89.3066 244.392 89.447 240.808 87.3407 238.489C85.2344 236.17 81.6536 236.03 79.4069 238.138C78.1431 239.262 48.7949 267.018 52.0246 330.61C54.9033 387.105 85.3046 440.649 86.5684 442.898C87.6216 444.725 89.5172 445.779 91.4831 445.779Z" fill="#5a3b27" />
                <path d="M84.3226 477.609C84.9545 479.787 85.7268 482.106 87.6225 483.23C89.5182 484.355 92.7479 483.16 92.5373 480.982C94.2223 483.792 96.469 486.744 99.6987 487.376C102.928 488.009 106.72 484.425 105.035 481.614C106.088 482.949 107.141 484.284 108.686 484.987C110.16 485.69 112.266 485.549 113.249 484.214C113.881 483.371 113.951 482.317 113.951 481.263C114.303 473.463 113.53 465.663 111.564 458.075C113.39 460.534 115.215 463.064 117.883 464.539C120.551 466.015 124.132 466.296 126.379 464.258C128.696 462.22 128.836 458.426 127.502 455.615C126.168 452.804 123.711 450.696 121.324 448.729C112.126 441.14 102.507 433.832 94.7138 424.768C86.6395 415.352 80.0397 402.563 75.4058 388.369C61.4339 393.499 71.8251 417.179 73.4399 427.578C75.9675 444.513 79.6185 461.237 84.3226 477.609Z" fill="#5a3b27" />
                <path d="M71.1237 271.724H78.7766C81.3042 265.681 84.4637 259.778 88.3253 254.297C109.669 223.239 123.782 204.126 129.679 167.236C133.471 143.907 153.621 126.691 177.212 126.691H357.303C380.964 126.691 401.044 143.837 404.835 167.236C410.803 204.126 424.845 223.239 446.189 254.297C449.981 259.848 453.14 265.681 455.738 271.724H463.391V321.684C463.18 332.997 461.004 344.38 456.721 355.202C444.153 387.454 415.437 410.643 381.245 416.053L370.432 417.74C302.047 428.631 232.398 428.631 164.083 417.74L153.27 416.053C119.078 410.643 90.3614 387.454 77.7937 355.202C73.5811 344.38 71.4045 332.997 71.1237 321.684V271.724Z" fill="#99603B" />
                <path d="M248.685 66.0515C230.46 66.0515 215.685 51.2654 215.685 33.0258C215.685 14.7861 230.46 0 248.685 0C266.909 0 281.684 14.7861 281.684 33.0258C281.684 51.2654 266.909 66.0515 248.685 66.0515Z" fill="#C8B283" />
                <path d="M145.194 60.4995H389.317C412.486 60.4995 431.303 79.3312 431.303 102.52C431.303 120.227 422.246 136.67 407.361 146.156L369.026 170.539H165.555L127.22 146.156C112.335 136.67 103.278 120.227 103.278 102.52C103.208 79.3312 121.954 60.4995 145.194 60.4995Z" fill="#E9CD95" />
                <path d="M177.211 92.1919H357.231C380.822 92.1919 400.973 109.337 404.764 132.596C410.732 169.557 424.774 188.669 446.189 219.798C464.514 246.429 468.375 280.369 456.65 310.513C444.082 342.766 415.366 365.954 381.173 371.365L370.361 373.052C301.976 383.943 232.327 383.943 164.012 373.052L153.199 371.365C119.006 365.954 90.2902 342.766 77.7225 310.513C65.9973 280.439 69.9291 246.429 88.1839 219.798C109.528 188.669 123.64 169.627 129.608 132.596C133.4 109.267 153.62 92.1919 177.211 92.1919Z" fill="#AF6C45" />
                <path d="M285.757 66.0515C267.532 66.0515 252.758 51.2654 252.758 33.0258C252.758 14.7861 267.532 0 285.757 0C303.982 0 318.756 14.7861 318.756 33.0258C318.756 51.2654 303.982 66.0515 285.757 66.0515Z" fill="#E9CD95" />
                <path fill-rule="evenodd" clip-rule="evenodd" d="M269.047 260.411C271.715 258.935 273.962 257.249 276.63 256.898C283.51 255.914 283.089 265.4 280.632 269.757C275.857 278.329 267.081 282.475 258.375 282.335C249.669 282.475 240.892 278.259 236.118 269.757C233.731 265.4 233.239 255.914 240.12 256.898C242.718 257.319 245.035 258.935 247.703 260.411C251.073 262.308 254.724 263.151 258.375 263.081C262.026 263.151 265.677 262.308 269.047 260.411Z" fill="#590D32" />
                <path fill-rule="evenodd" clip-rule="evenodd" d="M331.254 288.027C317.774 288.027 306.751 285.216 306.751 281.702C306.751 278.259 317.774 275.378 331.254 275.378C344.735 275.378 355.758 278.189 355.758 281.702C355.758 285.146 344.735 288.027 331.254 288.027Z" fill="#EE8289" />
                <path fill-rule="evenodd" clip-rule="evenodd" d="M185.498 288.027C172.017 288.027 160.994 285.216 160.994 281.702C160.994 278.259 172.017 275.378 185.498 275.378C198.978 275.378 210.001 278.189 210.001 281.702C210.001 285.146 199.049 288.027 185.498 288.027Z" fill="#EE8289" />
                <path fill-rule="evenodd" clip-rule="evenodd" d="M339.4 229.565C339.4 232.586 341.858 235.116 344.947 235.116C347.966 235.116 350.423 232.656 350.423 229.565C350.423 221.554 347.194 214.387 341.998 209.117C336.802 203.917 329.571 200.685 321.567 200.685C313.563 200.685 306.401 203.917 301.135 209.117C295.94 214.316 292.64 221.554 292.64 229.565C292.64 232.586 295.097 235.116 298.187 235.116C301.206 235.116 303.733 232.656 303.733 229.565C303.733 224.646 305.769 220.149 308.999 216.916C312.229 213.684 316.722 211.717 321.637 211.717C326.552 211.717 331.045 213.684 334.275 216.916C337.434 220.149 339.4 224.646 339.4 229.565Z" fill="#590D32" />
                <path fill-rule="evenodd" clip-rule="evenodd" d="M213.09 229.565C213.09 232.586 215.547 235.116 218.636 235.116C221.655 235.116 224.113 232.656 224.113 229.565C224.113 221.554 220.883 214.387 215.687 209.117C210.492 203.917 203.26 200.685 195.256 200.685C187.252 200.685 180.091 203.917 174.825 209.117C169.629 214.316 166.329 221.554 166.329 229.565C166.329 232.586 168.787 235.116 171.876 235.116C174.895 235.116 177.423 232.656 177.423 229.565C177.423 224.646 179.389 220.149 182.688 216.916C185.918 213.684 190.412 211.717 195.326 211.717C200.241 211.717 204.735 213.684 207.964 216.916C211.124 220.149 213.09 224.646 213.09 229.565Z" fill="#590D32" />
                <path d="M18.5371 686.373C19.0286 686.373 19.52 686.302 20.0115 686.232C24.9263 685.459 28.2964 680.751 27.524 675.833C27.4538 675.341 57.5041 518.363 68.5272 477.889C79.9715 435.798 168.367 401.086 168.577 400.875C171.667 396.94 171.035 391.249 167.103 388.157C163.171 385.065 157.484 385.698 154.395 389.633C153.412 390.827 63.5422 427.296 51.0446 473.181C38.9684 517.52 9.26929 676.676 9.62035 678.854C10.3224 683.211 14.184 686.373 18.5371 686.373Z" fill="#5a3b27" />
                <path d="M25.7679 673.094C25.7679 673.094 38.8973 672.743 49.3587 677.381C59.9606 682.089 67.9646 691.926 67.6837 695.51C67.1923 702.607 0.70266 705.136 0.000556946 695.088C-0.701553 685.04 12.4981 670.986 12.4981 670.986L25.7679 673.094Z" fill="#5a3b27" />
                <path d="M149.479 695.016C149.971 695.016 150.462 694.945 150.954 694.875C155.869 694.102 159.239 689.394 158.466 684.476C158.396 683.984 188.446 527.006 199.47 486.532C210.914 444.441 299.309 409.729 299.52 409.519C302.609 405.584 301.977 399.892 298.045 396.8C294.114 393.708 288.427 394.341 285.337 398.276C284.354 399.47 194.485 435.939 181.987 481.824C169.911 526.163 140.212 685.319 140.563 687.497C141.265 691.854 145.126 695.016 149.479 695.016Z" fill="#5a3b27" />
                <path d="M140.562 680.331C140.562 680.331 127.433 679.98 116.971 684.618C106.369 689.325 98.3654 699.163 98.6462 702.747C99.1377 709.844 165.627 712.373 166.329 702.325C167.032 692.277 153.832 678.223 153.832 678.223L140.562 680.331Z" fill="#5a3b27" />
                <path d="M506.431 344.732C512.68 344.732 519.21 344.381 526.09 343.538C616.662 332.505 588.648 246.076 589.631 243.055C590.614 239.823 587.103 236.379 583.803 235.325C580.574 234.342 577.133 236.098 576.08 239.401C575.238 242.071 608.939 315.712 524.546 331.311C468.658 341.711 434.325 294.561 433.974 294.28C431.376 292.102 427.514 292.383 425.338 294.983C423.161 297.583 423.442 301.447 426.04 303.626C427.444 304.82 456.441 344.732 506.431 344.732Z" fill="#5a3b27" />
                <path d="M574.113 162.248C573.411 159.929 572.498 157.399 570.462 156.204C568.356 155.01 564.845 156.345 565.196 158.734C563.301 155.713 560.843 152.551 557.262 151.918C553.752 151.286 549.68 155.221 551.575 158.313C550.452 156.907 549.188 155.432 547.573 154.729C545.888 153.956 543.712 154.167 542.659 155.642C542.027 156.556 541.956 157.75 541.886 158.804C541.605 167.237 547.012 181.712 549.258 189.863C547.222 187.263 533.812 184.382 533.04 187.614C531.355 194.992 545.607 201.878 548.205 203.986C558.316 212.137 576.5 231.11 581.345 261.255C596.44 255.422 588.647 227.667 586.751 216.354C583.732 198.084 579.519 180.025 574.113 162.248Z" fill="#5a3b27" />
                <path d="M423.231 319.928C423.371 319.928 423.441 319.928 423.582 319.928C424.565 319.717 425.126 318.804 424.986 317.89C424.986 317.749 422.529 304.82 426.109 298.566C430.111 291.68 440.432 289.783 440.503 289.783C441.485 289.642 442.117 288.729 441.907 287.745C441.766 286.761 440.854 286.129 439.871 286.34C439.379 286.41 427.865 288.518 423.02 296.81C418.737 304.188 421.335 317.96 421.475 318.522C421.686 319.295 422.388 319.928 423.231 319.928Z" fill="#5a3b27" />
        </g>
        <defs>
                <clipPath id="clip0">
                        <rect width="593" height="709" fill="white" transform="matrix(-1 0 0 1 593 0)" />
                </clipPath>
        </defs>
</svg>
