<?xml version="1.0" encoding="utf-8"?>
<svg viewBox="3.055 3.76 217.503 166.152" width="217.503" height="166.152" xmlns="http://www.w3.org/2000/svg">
  <defs>
    <clipPath id="clip0">
      <rect width="52" height="24" fill="white" transform="translate(388 226)" />
    </clipPath>
  </defs>
  <path d="M 162.149 76.498 L 160.142 76.498 C 159.442 74.866 158.602 73.327 157.622 71.881 C 151.927 63.626 148.192 58.543 146.605 48.749 C 145.578 42.547 140.21 37.977 133.908 37.977 L 86.014 37.977 C 79.713 37.977 74.391 42.547 73.364 48.749 C 71.777 58.543 68.043 63.626 62.348 71.881 C 61.321 73.327 60.48 74.912 59.827 76.498 L 57.82 76.498 L 57.82 89.742 C 57.866 92.727 58.473 95.758 59.593 98.65 C 62.954 107.231 70.563 113.387 79.666 114.786 L 82.513 115.252 C 100.672 118.144 119.204 118.144 137.409 115.252 L 140.257 114.786 C 149.359 113.34 156.968 107.184 160.329 98.65 C 161.449 95.758 162.056 92.774 162.103 89.742 L 162.103 76.498 L 162.149 76.498 Z" fill="#9B603C" />
  <path d="M 114.91 21.887 C 119.757 21.887 123.686 17.962 123.686 13.12 C 123.686 8.277 119.757 4.352 114.91 4.352 C 110.063 4.352 106.134 8.277 106.134 13.12 C 106.134 17.962 110.063 21.887 114.91 21.887 Z" fill="#CAB385" />
  <path d="M 142.451 20.395 L 77.519 20.395 C 71.357 20.395 66.363 25.385 66.363 31.541 C 66.363 36.251 68.743 40.588 72.711 43.106 L 82.934 49.589 L 137.036 49.589 L 147.259 43.106 C 151.227 40.588 153.608 36.204 153.608 31.541 C 153.608 25.431 148.613 20.395 142.451 20.395 Z" fill="#EACE97" />
  <path d="M 133.908 28.836 L 86.015 28.836 C 79.76 28.836 74.391 33.36 73.364 39.562 C 71.777 49.356 68.043 54.439 62.348 62.694 C 57.493 69.782 56.42 78.783 59.547 86.758 C 62.908 95.339 70.517 101.495 79.619 102.894 L 82.467 103.36 C 100.626 106.252 119.157 106.252 137.363 103.36 L 140.21 102.894 C 149.313 101.448 156.922 95.292 160.283 86.758 C 163.41 78.783 162.383 69.736 157.482 62.694 C 151.787 54.439 148.052 49.356 146.465 39.562 C 145.578 33.36 140.21 28.836 133.908 28.836 Z" fill="#B06C46" />
  <path d="M 105.06 21.887 C 109.907 21.887 113.836 17.962 113.836 13.12 C 113.836 8.277 109.907 4.352 105.06 4.352 C 100.214 4.352 96.284 8.277 96.284 13.12 C 96.284 17.962 100.214 21.887 105.06 21.887 Z" fill="#EACE97" />
  <g clip-path="url(#clip0)" transform="matrix(1, 0, 0, 1, -303.822968, -182.648087)">
    <path fill-rule="evenodd" clip-rule="evenodd" d="M411.168 242.403C410.466 242.016 409.858 241.532 409.156 241.435C407.33 241.145 407.424 243.758 408.079 244.968C409.343 247.339 411.683 248.5 414.024 248.452C416.364 248.5 418.704 247.339 419.968 244.968C420.623 243.758 420.717 241.145 418.891 241.435C418.189 241.532 417.581 242.016 416.879 242.403C415.989 242.935 415.006 243.177 414.024 243.129C413.041 243.177 412.058 242.935 411.168 242.403Z" fill="#5A0D32" />
    <path fill-rule="evenodd" clip-rule="evenodd" d="M394.553 250C398.157 250 401.105 249.226 401.105 248.258C401.105 247.29 398.157 246.516 394.553 246.516C390.949 246.516 388 247.29 388 248.258C388.047 249.226 390.995 250 394.553 250Z" fill="#EF838B" />
    <path fill-rule="evenodd" clip-rule="evenodd" d="M433.447 250C437.051 250 440 249.226 440 248.258C440 247.29 437.051 246.516 433.447 246.516C429.843 246.516 426.895 247.29 426.895 248.258C426.895 249.226 429.843 250 433.447 250Z" fill="#EF838B" />
    <path fill-rule="evenodd" clip-rule="evenodd" d="M397.254 238.763C400.693 238.763 403.536 235.922 403.536 232.382C403.536 228.841 400.693 226 397.254 226C393.769 226 390.972 228.841 390.972 232.382C390.972 235.875 393.769 238.763 397.254 238.763Z" fill="#5A0D32" />
    <path fill-rule="evenodd" clip-rule="evenodd" d="M398.538 232.288C399.776 232.288 400.739 231.264 400.739 230.053C400.739 228.841 399.73 227.817 398.538 227.817C397.3 227.817 396.337 228.841 396.337 230.053C396.337 231.264 397.346 232.288 398.538 232.288Z" fill="white" />
    <path fill-rule="evenodd" clip-rule="evenodd" d="M430.93 239.268C434.369 239.268 437.212 236.427 437.212 232.887C437.212 229.393 434.415 226.505 430.93 226.505C427.49 226.505 424.647 229.347 424.647 232.887C424.647 236.38 427.49 239.268 430.93 239.268Z" fill="#5A0D32" />
    <path fill-rule="evenodd" clip-rule="evenodd" d="M432.627 232.84C433.865 232.84 434.828 231.815 434.828 230.604C434.828 229.393 433.819 228.368 432.627 228.368C431.389 228.368 430.426 229.393 430.426 230.604C430.426 231.815 431.435 232.84 432.627 232.84Z" fill="white" />
  </g>
  <path d="M 64.9 69.893 C 64.9 69.893 46.871 58.682 38.142 58.222 C 29.413 57.761 3.437 65.124 3.437 65.124 L 3.907 67.224 C 14.233 64.74 29.324 60.452 37.975 61.045 C 46.626 61.638 56.588 67.777 63.317 72.606 L 64.9 69.893 Z" fill="#593A26" />
  <path d="M 78.179 161.321 C 78.179 161.321 58.41 145.886 58.758 130.856 C 59.105 115.826 78.179 97.32 78.179 97.32 L 80.264 99.143 C 74.412 105.34 62.574 120.358 62.038 130.856 C 61.502 141.354 73.965 153.942 80.264 158.924 L 78.179 161.321 Z" fill="#593A26" />
  <ellipse rx="5.102" ry="2.525" transform="matrix(0.802386, -0.596806, 0.589606, 0.807741, 78.271042, 161.768906)" fill="#593A26" />
  <ellipse rx="5.102" ry="2.525" transform="matrix(0.802386, -0.596806, 0.589606, 0.807741, 78.271042, 161.768906)" fill="#593A26" />
  <path d="M 137.692 98.535 C 137.692 98.535 153.496 109.237 156.778 122.065 C 160.059 134.893 156.778 160.163 156.778 160.163 L 153.052 159.322 C 154.359 148.537 156.778 134.484 153.052 122.065 C 150.619 113.954 141.178 104.417 136.058 100.822 L 137.692 98.535 Z" fill="#593A26" />
  <ellipse rx="5.101" ry="2.525" transform="matrix(0.942899, 0.33308, -0.34074, 0.940193, 157.135056, 159.514908)" fill="#593A26" />
  <ellipse rx="5.101" ry="2.525" transform="matrix(0.942899, 0.33308, -0.34074, 0.940193, 157.135056, 159.514908)" fill="#593A26" />
  <path d="M 155.908 64.252 C 155.908 64.252 169.584 80.491 171.289 89.064 C 172.995 97.637 169.425 124.399 169.425 124.399 L 167.153 123.261 C 168.525 112.289 170.141 95.525 168.396 89.064 C 167.346 85.176 160.383 73.876 153.983 66.105 L 155.908 64.252 Z" fill="#593A26" />
</svg>