<svg width="211" height="186" viewBox="0 0 211 186" fill="none" xmlns="http://www.w3.org/2000/svg">
    <path d="M144.787 29.2942H87.7063C82.2873 29.2942 77.8867 33.6974 77.8867 39.1196C77.8867 43.2499 79.996 47.1073 83.4875 49.3271L92.4525 55.0403H140.041L149.006 49.3271C152.498 47.1073 154.607 43.2499 154.607 39.1196C154.607 33.6974 150.206 29.2942 144.787 29.2942Z" fill="#C8B283" />
    <path d="M127.531 24.3089C127.531 28.5666 124.076 32.0236 119.821 32.0236C115.565 32.0236 112.11 28.5666 112.11 24.3089C112.11 20.0513 115.565 16.5942 119.821 16.5942C124.076 16.5942 127.531 20.0331 127.531 24.3089Z" fill="#C8B283" />
    <path d="M140.932 64.8294C146.86 61.4269 148.533 49.873 148.57 49.6183C148.461 48.5265 148.424 47.3984 148.424 46.1793C148.424 40.648 142.842 36.6997 136.968 36.6997H94.8528C89.6702 36.6997 84.9605 40.7208 84.0694 46.1793C82.742 54.3854 79.7052 53.9487 75.1045 60.1532L77.8868 64.8294C77.8686 64.8294 134.931 68.25 140.932 64.8294Z" fill="#99603B" />
    <path d="M121.912 63.2826C106.237 63.2826 85.5608 62.1909 79.6691 61.8634L78.8145 60.426C79.6873 59.4071 80.5056 58.6065 81.2875 57.8423C83.8333 55.3495 86.0337 53.1843 87.0884 46.6886C87.7248 42.7585 91.0526 39.7927 94.835 39.7927H136.95C141.005 39.7927 145.333 42.3582 145.333 46.1974C145.333 47.5438 145.37 48.5992 145.46 49.5635C144.824 53.6028 142.696 60.2986 139.405 62.1909C139.041 62.3365 136.368 63.2826 121.912 63.2826C121.93 63.2826 121.93 63.2826 121.912 63.2826Z" fill="#4D4D4F" />
    <path d="M155.298 64.1743C150.443 57.1146 148.97 53.5301 148.552 49.6182C148.515 49.8729 146.842 61.4268 140.914 64.8293C134.931 68.2682 77.8685 64.8293 77.8685 64.8293L75.0863 60.1531C74.8499 60.4624 74.6136 60.79 74.3772 61.1357C70.1038 67.3584 69.1763 75.3097 71.9222 82.333C74.8681 89.884 81.5782 95.288 89.5794 96.5616L92.107 96.9619C108.091 99.5093 124.384 99.5093 140.369 96.9619L142.896 96.5616L148.57 110.736C158.626 96.7436 162.372 74.4546 155.298 64.1743Z" fill="#99603B" />
    <path d="M118.893 63.264C130.533 63.264 139.969 53.8225 139.969 42.1758C139.969 30.5292 130.533 21.0876 118.893 21.0876C107.253 21.0876 97.8174 30.5292 97.8174 42.1758C97.8174 53.8225 107.253 63.264 118.893 63.264Z" fill="#F6C840" />
    <path d="M118.93 47.7253C111.747 47.7253 106.583 49.1445 106.583 49.1445V51.5099C106.583 51.5099 111.747 50.0907 118.93 50.0907C126.113 50.0907 131.277 51.5099 131.277 51.5099V49.1445C131.277 49.1445 126.113 47.7253 118.93 47.7253Z" fill="#FFF8D1" />
    <path d="M133.514 34.916C132.841 34.916 132.277 35.4619 132.277 36.1534C132.277 36.5354 132.459 36.8812 132.75 37.1177L128.241 43.7407L127.077 36.026C127.75 35.9168 128.259 35.3527 128.259 34.6431C128.259 33.8789 127.64 33.2421 126.859 33.2421C126.077 33.2421 125.458 33.8607 125.458 34.6431C125.458 35.1526 125.749 35.6075 126.168 35.844L122.458 42.3033L119.385 33.3513C119.948 33.1511 120.367 32.6235 120.367 31.9866C120.367 31.1861 119.712 30.531 118.912 30.531C118.112 30.531 117.457 31.1861 117.457 31.9866C117.457 32.6235 117.875 33.1511 118.439 33.3513L115.366 42.3033L111.656 35.844C112.075 35.6075 112.365 35.1526 112.365 34.6431C112.365 33.8789 111.747 33.2421 110.965 33.2421C110.183 33.2421 109.565 33.8607 109.565 34.6431C109.565 35.3345 110.074 35.9168 110.747 36.026L109.583 43.7407L105.073 37.1177C105.364 36.8993 105.546 36.5536 105.546 36.1534C105.546 35.4801 105.001 34.916 104.31 34.916C103.619 34.916 103.073 35.4619 103.073 36.1534C103.073 36.8266 103.619 37.3906 104.31 37.3906C104.437 37.3906 104.564 37.3724 104.692 37.3178L105.474 40.1199C106.183 42.6854 106.547 45.3237 106.547 47.9802V48.0166C106.547 48.0166 111.711 46.5973 118.894 46.5973C126.077 46.5973 131.241 48.0166 131.241 48.0166V47.9802C131.241 45.3237 131.605 42.6854 132.314 40.1199L133.096 37.3178C133.223 37.3542 133.332 37.3906 133.478 37.3906C134.151 37.3906 134.714 36.8448 134.714 36.1534C134.751 35.4801 134.187 34.916 133.514 34.916Z" fill="#FFF8D1" />
    <path d="M88.0153 42.1764C99.6552 42.1764 109.091 32.7348 109.091 21.0882C109.091 9.44149 99.6552 0 88.0153 0C76.3755 0 66.9395 9.44149 66.9395 21.0882C66.9395 32.7348 76.3755 42.1764 88.0153 42.1764Z" fill="#F6C840" />
    <path d="M88.0503 26.6372C80.8675 26.6372 75.7031 28.0564 75.7031 28.0564V30.4218C75.7031 30.4218 80.8675 29.0026 88.0503 29.0026C95.2331 29.0026 100.398 30.4218 100.398 30.4218V28.0564C100.398 28.0746 95.2331 26.6372 88.0503 26.6372Z" fill="#FFF8D1" />
    <path d="M102.635 13.8465C101.962 13.8465 101.399 14.3923 101.399 15.0837C101.399 15.4658 101.58 15.8115 101.871 16.0481L97.3616 22.6711L96.1978 14.9563C96.8707 14.8472 97.3798 14.2832 97.3798 13.5735C97.3798 12.8093 96.7615 12.1725 95.9795 12.1725C95.1976 12.1725 94.5794 12.7912 94.5794 13.5735C94.5794 14.083 94.8704 14.5379 95.2886 14.7744L91.5789 21.2337L88.5057 12.2816C89.0695 12.0815 89.4878 11.5538 89.4878 10.917C89.4878 10.1164 88.833 9.46143 88.0329 9.46143C87.2328 9.46143 86.5782 10.1164 86.5782 10.917C86.5782 11.5538 86.9965 12.0815 87.5602 12.2816L84.487 21.2337L80.7773 14.7744C81.1956 14.5379 81.4866 14.083 81.4866 13.5735C81.4866 12.8093 80.8683 12.1725 80.0863 12.1725C79.3226 12.1725 78.6862 12.7912 78.6862 13.5735C78.6862 14.265 79.1953 14.8472 79.8681 14.9563L78.7043 22.6711L74.1946 16.0481C74.4855 15.8297 74.6674 15.484 74.6674 15.0837C74.6674 14.4105 74.1219 13.8465 73.4309 13.8465C72.7399 13.8465 72.1943 14.3923 72.1943 15.0837C72.1943 15.7751 72.7399 16.321 73.4309 16.321C73.5582 16.321 73.6855 16.3028 73.8128 16.2482L74.5947 19.0502C75.3039 21.6158 75.6675 24.2541 75.6675 26.9106V26.9469C75.6675 26.9469 80.832 25.5277 88.0148 25.5277C95.1977 25.5277 100.362 26.9469 100.362 26.9469V26.9106C100.362 24.2541 100.726 21.6158 101.435 19.0502L102.217 16.2482C102.344 16.2846 102.453 16.321 102.599 16.321C103.272 16.321 103.835 15.7751 103.835 15.0837C103.835 14.3923 103.308 13.8465 102.635 13.8465Z" fill="#FFF8D1" />
    <path d="M151.714 87.2459H149.932C149.332 85.8267 148.587 84.462 147.714 83.1702C142.713 75.9103 139.422 67.6497 138.04 59.007C137.149 53.5485 132.457 49.5273 126.929 49.5273H84.8138C79.2857 49.5273 74.5758 53.5485 73.703 59.007C72.3028 67.6315 69.0115 75.8921 64.0289 83.1702C63.1379 84.462 62.3923 85.8267 61.8104 87.2459H60.0283V99.6185C60.0829 102.275 60.592 104.913 61.574 107.461C64.5198 115.012 71.23 120.416 79.2311 121.689L81.7588 122.09C97.7429 124.637 114.036 124.637 130.02 122.09L132.548 121.689C140.531 120.416 147.259 115.012 150.205 107.461C151.187 104.932 151.696 102.275 151.751 99.6185V87.2459H151.714Z" fill="#99603B" />
    <path d="M134.404 43.2681H77.3226C71.9036 43.2681 67.5029 47.6713 67.5029 53.0935C67.5029 57.2238 69.6124 61.0811 73.1038 63.3009L82.0687 69.0142H129.657L138.622 63.3009C142.114 61.0811 144.223 57.2238 144.223 53.0935C144.223 47.6531 139.823 43.2681 134.404 43.2681Z" fill="#E9CD95" />
    <path d="M126.912 50.6555H84.7968C79.2687 50.6555 74.5589 54.6767 73.6861 60.1352C72.2859 68.7597 68.9945 67.8317 64.0119 75.1098C59.7386 81.3325 58.8111 89.2839 61.557 96.3072C64.5028 103.858 71.213 109.262 79.2141 110.536L81.7418 110.936C97.7259 113.483 114.019 113.483 130.003 110.936L132.531 110.536C140.514 109.262 147.242 103.858 150.188 96.3072C152.934 89.2657 152.007 81.3325 147.733 75.1098C142.732 67.8499 139.441 68.7779 138.059 60.1352C137.15 54.6767 132.44 50.6555 126.912 50.6555Z" fill="#AF6C45" />
    <path d="M106.97 43.7227C109.981 40.7099 109.981 35.8253 106.97 32.8125C103.959 29.7998 99.0771 29.7998 96.0661 32.8125C93.0551 35.8253 93.0551 40.7099 96.0661 43.7226C99.0771 46.7354 103.959 46.7354 106.97 43.7227Z" fill="#E9CD95" />
    <path d="M60.4046 91.9557C60.4046 91.9557 39.2142 90.6473 31.8326 85.9654C24.451 81.2835 7.5458 60.2324 7.5458 60.2324L9.14531 58.7929C16.1218 66.8005 25.9382 79.0386 33.3324 83.5675C40.7266 88.0963 52.4036 88.8644 60.6861 88.8272L60.4046 91.9557Z" fill="#593A26" />
    <path d="M80.0016 179.969C80.0016 179.969 60.2327 164.534 60.5806 149.504C60.9285 134.474 80.0016 115.968 80.0016 115.968L82.0871 117.791C76.2352 123.988 64.3974 139.006 63.8612 149.504C63.325 160.002 75.7884 172.59 82.0871 177.572L80.0016 179.969Z" fill="#593A26" />
    <ellipse rx="5.1015" ry="2.52549" transform="matrix(0.802386 -0.596806 0.589582 0.807708 80.0941 180.417)" fill="#593A26" />
    <ellipse rx="5.1015" ry="2.52549" transform="matrix(0.802386 -0.596806 0.589582 0.807708 80.0941 180.417)" fill="#593A26" />
    <path d="M139.515 117.183C139.515 117.183 155.319 127.885 158.601 140.713C161.882 153.541 158.601 178.811 158.601 178.811L154.875 177.97C156.182 167.185 158.601 153.132 154.875 140.713C152.442 132.602 143.001 123.065 137.881 119.47L139.515 117.183Z" fill="#593A26" />
    <ellipse rx="5.10135" ry="2.52555" transform="matrix(0.942899 0.33308 -0.340729 0.940162 158.958 178.163)" fill="#593A26" />
    <ellipse rx="5.10135" ry="2.52555" transform="matrix(0.942899 0.33308 -0.340729 0.940162 158.958 178.163)" fill="#593A26" />
    <path d="M147.886 105.595C147.886 105.595 168.984 107.972 177.064 104.637C185.144 101.303 205.436 83.4932 205.436 83.4932L203.228 82.2339C194.859 89.4588 181.804 100.099 175.46 102.23C171.641 103.512 158.377 103.983 148.361 102.966L147.886 105.595Z" fill="#593A26" />
    <path fill-rule="evenodd" clip-rule="evenodd" d="M91.2484 98.1291C94.2996 98.1291 96.7946 97.4931 96.7946 96.698C96.7946 95.9188 94.2996 95.2668 91.2484 95.2668C88.1972 95.2668 85.7021 95.9029 85.7021 96.698C85.7021 97.4931 88.1972 98.1291 91.2484 98.1291Z" fill="#EE8289" />
    <path fill-rule="evenodd" clip-rule="evenodd" d="M124.24 98.1291C127.291 98.1291 129.786 97.4931 129.786 96.698C129.786 95.9188 127.291 95.2668 124.24 95.2668C121.188 95.2668 118.693 95.9029 118.693 96.698C118.693 97.4931 121.172 98.1291 124.24 98.1291Z" fill="#EE8289" />
    <path d="M108.411 102.677C103.549 102.677 99.6074 99.2261 99.6074 94.9965C99.6074 93.2314 100.323 92.3728 101.785 92.3728C102.484 92.3728 103.326 92.5636 104.28 92.7862C105.519 93.0724 106.918 93.3904 108.411 93.3904C109.905 93.3904 111.304 93.0724 112.543 92.7862C113.513 92.5636 114.339 92.3728 115.038 92.3728C116.5 92.3728 117.215 93.2314 117.215 94.9965C117.231 99.2261 113.274 102.677 108.411 102.677Z" fill="#590D32" />
    <path d="M90.6759 85.5353C90.5488 85.5353 90.4217 85.4876 90.3104 85.3922L82.5871 78.4912C80.6324 76.742 80.4576 73.7209 82.2057 71.7491C83.1115 70.7315 84.3987 70.159 85.7654 70.159C86.9414 70.159 88.0697 70.5883 88.9437 71.3675L90.6759 72.9099L92.5829 71.2085C93.457 70.4293 94.5853 70 95.7613 70C97.1121 70 98.4152 70.5724 99.321 71.5901C101.069 73.5459 100.91 76.5671 98.9396 78.3321L91.0414 85.4081C90.9302 85.4876 90.8031 85.5353 90.6759 85.5353Z" fill="#EE8289" />
    <path d="M98.2402 73.2756C99.0189 74.5795 98.9077 76.0742 98.0019 76.6149C97.096 77.1555 95.7294 76.5353 94.9666 75.2473C94.1879 73.9434 94.2991 72.4487 95.2049 71.9081C96.0949 71.3516 97.4615 71.9717 98.2402 73.2756Z" fill="white" />
    <path d="M93.6165 74.8977C93.839 75.3748 93.7596 75.8836 93.4417 76.0427C93.1239 76.1858 92.6789 75.9314 92.4564 75.4384C92.2339 74.9455 92.3134 74.4525 92.6312 74.2935C92.9491 74.1504 93.394 74.4048 93.6165 74.8977Z" fill="white" />
    <path d="M95.9832 77.8233C95.9832 78.1731 95.6971 78.4593 95.3475 78.4593C94.9979 78.4593 94.7119 78.1731 94.7119 77.8233C94.7119 77.4734 94.9979 77.1872 95.3475 77.1872C95.6971 77.1713 95.9832 77.4575 95.9832 77.8233Z" fill="white" />
    <path d="M124.144 85.5353C124.017 85.5353 123.889 85.4876 123.778 85.3922L116.055 78.4912C114.1 76.742 113.925 73.7209 115.673 71.7491C116.579 70.7315 117.866 70.159 119.233 70.159C120.409 70.159 121.537 70.5883 122.412 71.3675L124.144 72.9099L126.051 71.2085C126.925 70.4293 128.053 70 129.229 70C130.58 70 131.883 70.5724 132.789 71.5901C134.537 73.5459 134.378 76.5671 132.407 78.3321L124.509 85.4081C124.398 85.4876 124.271 85.5353 124.144 85.5353Z" fill="#EE8289" />
    <path d="M131.691 73.2756C132.47 74.5795 132.359 76.0742 131.453 76.6149C130.547 77.1555 129.181 76.5353 128.418 75.2473C127.639 73.9434 127.75 72.4487 128.656 71.9081C129.562 71.3516 130.929 71.9717 131.691 73.2756Z" fill="white" />
    <path d="M127.083 74.8977C127.306 75.3748 127.226 75.8836 126.908 76.0427C126.591 76.1858 126.146 75.9314 125.923 75.4384C125.701 74.9614 125.78 74.4525 126.098 74.2935C126.416 74.1504 126.861 74.4048 127.083 74.8977Z" fill="white" />
    <path d="M129.452 77.8233C129.452 78.1731 129.166 78.4593 128.816 78.4593C128.467 78.4593 128.181 78.1731 128.181 77.8233C128.181 77.4734 128.467 77.1872 128.816 77.1872C129.166 77.1713 129.452 77.4575 129.452 77.8233Z" fill="white" />
</svg>