<svg width="199" height="338" viewBox="0 0 199 338" fill="none" xmlns="http://www.w3.org/2000/svg">
<g clip-path="url(#clip0)">
<path d="M298.533 223.065L292.869 222.663C291.317 218.03 289.29 213.468 286.722 209.183C272.564 184.931 263.129 169.956 260.711 142.17C259.137 124.596 245.132 110.717 227.672 109.479L94.3838 100.032C76.8719 98.7903 61.105 110.507 57.0636 127.735C50.6991 154.898 39.2973 168.397 21.8605 190.409C18.7614 194.345 16.1151 198.523 13.8734 202.888L8.26126 202.49L5.6237 239.7C5.18234 248.137 6.19227 256.73 8.7908 265.014C16.3897 289.695 36.4188 308.472 61.4397 314.296L69.3531 316.119C119.391 327.819 170.94 331.473 222.076 326.945L230.167 326.256C255.759 324.02 278.237 308.256 289.241 284.893C292.93 277.054 295.142 268.69 295.947 260.279L298.585 223.069L298.533 223.065Z" fill="#99603B"/>
<path d="M177.974 60.5655C191.463 61.5216 203.178 51.2839 204.141 37.6991C205.104 24.1142 194.95 12.3264 181.461 11.3703C167.973 10.4142 156.257 20.6519 155.295 34.2367C154.332 47.8216 164.486 59.6094 177.974 60.5655Z" fill="#C8B283"/>
<path d="M254.914 61.8631L74.2342 49.0562C57.0861 47.8407 42.1655 60.8794 40.9413 78.15C40.0065 91.3385 45.8418 104.06 56.3574 111.906L83.4426 132.078L234.035 142.752L263.694 126.603C275.212 120.318 282.783 108.547 283.718 95.3586C284.994 78.0916 272.062 63.0786 254.914 61.8631Z" fill="#E9CD95"/>
<path d="M229.493 83.7843L96.2568 74.3403C78.7969 73.1027 62.978 84.8154 58.944 101.939C52.5758 129.155 41.174 142.653 23.6815 164.714C8.71293 183.588 4.06314 208.663 11.1497 231.73C18.7486 256.412 38.7777 275.189 63.7986 281.012L71.7121 282.836C121.75 294.535 173.299 298.189 224.435 293.661L232.526 292.972C258.118 290.736 280.596 274.972 291.6 251.609C301.866 229.825 300.751 204.288 288.647 183.496C274.493 159.191 265.054 144.268 262.592 116.374C261.017 98.8002 247.005 85.0256 229.493 83.7843Z" fill="#AF6C45"/>
<path d="M150.536 58.6207C164.025 59.5768 175.74 49.3391 176.703 35.7543C177.666 22.1694 167.512 10.3816 154.023 9.4255C140.535 8.46941 128.819 18.707 127.857 32.2919C126.894 45.8768 137.048 57.6646 150.536 58.6207Z" fill="#E9CD95"/>
<path fill-rule="evenodd" clip-rule="evenodd" d="M136.317 235.659C134.421 234.42 132.847 233.046 130.891 232.645C125.85 231.551 125.661 238.638 127.25 242.012C130.331 248.647 136.607 252.195 143.058 252.548C149.495 253.109 156.213 250.429 160.195 244.347C162.192 241.228 163.056 234.188 157.912 234.56C155.967 234.738 154.167 235.82 152.114 236.779C149.52 238.015 146.773 238.452 144.075 238.208C141.369 238.068 138.715 237.197 136.317 235.659Z" fill="#590D32"/>
<path fill-rule="evenodd" clip-rule="evenodd" d="M88.8188 252.964C98.7959 253.671 107.103 252.156 107.288 249.539C107.47 246.975 99.4637 244.25 89.4866 243.543C79.5094 242.836 71.2027 244.351 71.0172 246.968C70.8354 249.532 78.8417 252.256 88.8188 252.964Z" fill="#EE8289"/>
<path fill-rule="evenodd" clip-rule="evenodd" d="M196.695 260.61C206.672 261.317 214.979 259.802 215.165 257.185C215.346 254.621 207.34 251.897 197.363 251.19C187.386 250.483 179.079 251.998 178.894 254.614C178.712 257.179 186.718 259.903 196.695 260.61Z" fill="#EE8289"/>
<path fill-rule="evenodd" clip-rule="evenodd" d="M86.1846 204.649C86.3442 202.398 84.659 200.385 82.3725 200.223C80.1381 200.065 78.1895 201.768 78.0263 204.071C77.6034 210.037 79.6153 215.544 83.1825 219.742C86.7533 223.887 91.935 226.674 97.8589 227.094C103.783 227.514 109.254 225.482 113.426 221.886C117.545 218.286 120.37 213.068 120.793 207.102C120.952 204.851 119.267 202.839 116.981 202.676C114.746 202.518 112.746 204.217 112.582 206.52C112.323 210.183 110.578 213.426 108.017 215.664C105.456 217.902 102.027 219.132 98.3893 218.874C94.7518 218.616 91.53 216.915 89.3103 214.338C87.1945 211.769 85.925 208.312 86.1846 204.649Z" fill="#590D32"/>
<path fill-rule="evenodd" clip-rule="evenodd" d="M179.669 211.275C179.829 209.025 178.143 207.012 175.857 206.85C173.622 206.691 171.674 208.394 171.511 210.697C171.088 216.663 173.1 222.171 176.667 226.369C180.238 230.514 185.419 233.301 191.343 233.721C197.267 234.14 202.738 232.109 206.91 228.512C211.03 224.912 213.854 219.695 214.277 213.728C214.437 211.478 212.751 209.465 210.465 209.303C208.231 209.145 206.23 210.844 206.067 213.146C205.807 216.81 204.115 220.056 201.502 222.29C198.941 224.528 195.511 225.758 191.874 225.5C188.236 225.242 185.014 223.541 182.795 220.964C180.627 218.391 179.409 214.939 179.669 211.275Z" fill="#590D32"/>
</g>
<defs>
<clipPath id="clip0">
<rect width="291" height="318" fill="white" transform="translate(22.6064 0.110352) rotate(4.05448)"/>
</clipPath>
</defs>
</svg>
