<svg width="228" height="338" viewBox="0 0 228 338" fill="none" xmlns="http://www.w3.org/2000/svg">
<g clip-path="url(#clip0)">
<path d="M298.411 222.955L292.747 222.553C291.195 217.92 289.168 213.358 286.6 209.073C272.442 184.821 263.006 169.845 260.589 142.06C259.015 124.486 245.01 110.607 227.55 109.369L94.2617 99.9212C76.7498 98.6799 60.9829 110.396 56.9416 127.625C50.577 154.788 39.1752 168.287 21.7384 190.299C18.6393 194.235 15.993 198.413 13.7513 202.777L8.13919 202.379L5.50163 239.59C5.06027 248.027 6.0702 256.619 8.66873 264.904C16.2676 289.585 36.2967 308.362 61.3176 314.186L69.2311 316.009C119.269 327.708 170.818 331.362 221.954 326.834L230.045 326.145C255.637 323.909 278.115 308.145 289.119 284.783C292.808 276.944 295.02 268.58 295.825 260.169L298.463 222.958L298.411 222.955Z" fill="#99603B"/>
<path d="M177.852 60.4551C191.341 61.4112 203.056 51.1736 204.019 37.5887C204.982 24.0039 194.828 12.2161 181.339 11.26C167.851 10.3039 156.135 20.5415 155.172 34.1264C154.21 47.7113 164.364 59.499 177.852 60.4551Z" fill="#C8B283"/>
<path d="M254.791 61.7528L74.1122 48.9458C56.964 47.7303 42.0434 60.769 40.8192 78.0397C39.8844 91.2282 45.7197 103.95 56.2353 111.796L83.3205 131.967L233.913 142.642L263.572 126.492C275.089 120.208 282.661 108.437 283.596 95.2482C284.872 77.9813 271.94 62.9683 254.791 61.7528Z" fill="#E9CD95"/>
<path d="M229.371 83.674L96.1347 74.2299C78.6748 72.9923 62.8559 84.705 58.822 101.829C52.4537 129.044 41.0519 142.543 23.5595 164.604C8.59086 183.478 3.94107 208.553 11.0276 231.62C18.6265 256.301 38.6557 275.078 63.6766 280.902L71.59 282.725C121.628 294.425 173.177 298.079 224.313 293.551L232.404 292.862C257.996 290.626 280.474 274.862 291.478 251.499C301.744 229.715 300.629 204.178 288.525 183.385C274.371 159.081 264.931 144.158 262.469 116.264C260.895 98.6899 246.883 84.9153 229.371 83.674Z" fill="#AF6C45"/>
<path d="M150.414 58.5103C163.903 59.4664 175.618 49.2288 176.581 35.6439C177.544 22.059 167.39 10.2713 153.901 9.31515C140.413 8.35906 128.697 18.5967 127.734 32.1816C126.772 45.7664 136.926 57.5542 150.414 58.5103Z" fill="#E9CD95"/>
<path fill-rule="evenodd" clip-rule="evenodd" d="M151.506 249.787C153.485 250.888 155.152 252.148 157.132 252.41C162.237 253.144 161.924 246.061 160.101 242.808C156.559 236.408 150.047 233.312 143.587 233.417C137.127 233.312 130.616 236.46 127.073 242.808C125.302 246.061 124.937 253.144 130.043 252.41C131.97 252.095 133.689 250.888 135.669 249.787C138.169 248.37 140.878 247.74 143.587 247.793C146.296 247.74 149.005 248.422 151.506 249.787Z" fill="#590D32"/>
<path fill-rule="evenodd" clip-rule="evenodd" d="M88.6968 252.853C98.6739 253.561 106.981 252.045 107.166 249.429C107.348 246.864 99.3416 244.14 89.3645 243.433C79.3874 242.726 71.0806 244.241 70.8951 246.858C70.7134 249.422 78.7196 252.146 88.6968 252.853Z" fill="#EE8289"/>
<path fill-rule="evenodd" clip-rule="evenodd" d="M196.574 260.5C206.551 261.207 214.858 259.692 215.043 257.075C215.225 254.511 207.219 251.787 197.241 251.079C187.264 250.372 178.958 251.887 178.772 254.504C178.59 257.069 186.597 259.793 196.574 260.5Z" fill="#EE8289"/>
<path fill-rule="evenodd" clip-rule="evenodd" d="M86.0626 204.538C86.2221 202.288 84.5369 200.275 82.2505 200.113C80.016 199.955 78.0674 201.657 77.9042 203.96C77.4813 209.926 79.4933 215.434 83.0604 219.632C86.6312 223.777 91.8129 226.564 97.7368 226.984C103.661 227.404 109.132 225.372 113.304 221.775C117.423 218.175 120.248 212.958 120.671 206.992C120.83 204.741 119.145 202.728 116.859 202.566C114.624 202.408 112.624 204.107 112.46 206.41C112.201 210.073 110.456 213.316 107.895 215.554C105.334 217.792 101.905 219.021 98.2672 218.763C94.6298 218.506 91.4079 216.805 89.1882 214.228C87.0724 211.658 85.8029 208.202 86.0626 204.538Z" fill="#590D32"/>
<path fill-rule="evenodd" clip-rule="evenodd" d="M179.547 211.165C179.706 208.914 178.021 206.902 175.735 206.739C173.5 206.581 171.552 208.284 171.389 210.587C170.966 216.553 172.978 222.06 176.545 226.258C180.116 230.404 185.297 233.19 191.221 233.61C197.145 234.03 202.616 231.998 206.788 228.402C210.908 224.802 213.732 219.584 214.155 213.618C214.315 211.368 212.629 209.355 210.343 209.193C208.108 209.034 206.108 210.733 205.945 213.036C205.685 216.699 203.993 219.946 201.38 222.18C198.819 224.418 195.389 225.648 191.752 225.39C188.114 225.132 184.892 223.431 182.673 220.854C180.505 218.281 179.287 214.828 179.547 211.165Z" fill="#590D32"/>
</g>
<defs>
<clipPath id="clip0">
<rect width="291" height="318" fill="white" transform="translate(22.4844) rotate(4.05448)"/>
</clipPath>
</defs>
</svg>
