<svg width="19" height="20" viewBox="0 0 19 20" fill="none" xmlns="http://www.w3.org/2000/svg">
<path d="M9.50002 19.6244C14.7467 19.6244 19 15.2313 19 9.8122C19 4.39307 14.7467 0 9.50002 0C4.25332 0 0 4.39307 0 9.8122C0 15.2313 4.25332 19.6244 9.50002 19.6244Z" fill="#F6C840"/>
<path d="M9.51671 12.394C6.27901 12.394 3.95117 13.0544 3.95117 13.0544V14.155C3.95117 14.155 6.27901 13.4946 9.51671 13.4946C12.7544 13.4946 15.0823 14.155 15.0823 14.155V13.0544C15.0823 13.0629 12.7544 12.394 9.51671 12.394Z" fill="#FFF8D1"/>
<path d="M16.0904 6.44267C15.7871 6.44267 15.5331 6.69665 15.5331 7.01836C15.5331 7.19615 15.615 7.357 15.7462 7.46706L13.7134 10.5487L13.1888 6.95909C13.4921 6.9083 13.7216 6.64587 13.7216 6.31569C13.7216 5.96011 13.4429 5.66378 13.0904 5.66378C12.7379 5.66378 12.4593 5.95165 12.4593 6.31569C12.4593 6.55274 12.5904 6.76439 12.779 6.87445L11.1068 9.8799L9.72156 5.71458C9.97566 5.62145 10.1642 5.37593 10.1642 5.07962C10.1642 4.70711 9.8691 4.40234 9.50844 4.40234C9.14779 4.40234 8.85272 4.70711 8.85272 5.07962C8.85272 5.37593 9.04127 5.62145 9.29537 5.71458L7.91012 9.8799L6.23796 6.87445C6.42649 6.76439 6.55765 6.55274 6.55765 6.31569C6.55765 5.96011 6.27894 5.66378 5.92648 5.66378C5.58222 5.66378 5.29537 5.95165 5.29537 6.31569C5.29537 6.6374 5.52485 6.9083 5.82813 6.95909L5.30353 10.5487L3.27076 7.46706C3.40191 7.36547 3.48388 7.20462 3.48388 7.01836C3.48388 6.70512 3.23799 6.44267 2.92651 6.44267C2.61504 6.44267 2.36914 6.69665 2.36914 7.01836C2.36914 7.34007 2.61504 7.59405 2.92651 7.59405C2.98389 7.59405 3.04128 7.5856 3.09866 7.5602L3.45111 8.86396C3.77078 10.0577 3.93469 11.2853 3.93469 12.5213V12.5382C3.93469 12.5382 6.26259 11.8779 9.50029 11.8779C12.738 11.8779 15.0658 12.5382 15.0658 12.5382V12.5213C15.0658 11.2853 15.2297 10.0577 15.5494 8.86396L15.9019 7.5602C15.9593 7.57714 16.0084 7.59405 16.074 7.59405C16.3773 7.59405 16.6314 7.34007 16.6314 7.01836C16.6314 6.69665 16.3937 6.44267 16.0904 6.44267Z" fill="#FFF8D1"/>
</svg>
