<svg width="49" height="49" viewBox="0 0 49 49" fill="none" xmlns="http://www.w3.org/2000/svg">
<path d="M32.15 24.5C32.15 26.5289 31.344 28.4747 29.9094 29.9094C28.4747 31.344 26.5289 32.15 24.5 32.15C22.4711 32.15 20.5253 31.344 19.0907 29.9094C17.656 28.4747 16.85 26.5289 16.85 24.5C16.85 24.064 16.8959 23.6381 16.975 23.225H14.3V33.4174C14.3 34.1263 14.8738 34.7 15.5827 34.7H33.4199C33.7597 34.6993 34.0853 34.5639 34.3252 34.3234C34.5652 34.083 34.7 33.7571 34.7 33.4174V23.225H32.0251C32.1041 23.6381 32.15 24.064 32.15 24.5ZM24.5 29.6C25.1699 29.5999 25.8332 29.4677 26.4521 29.2112C27.0709 28.9547 27.6332 28.5788 28.1068 28.105C28.5804 27.6312 28.956 27.0687 29.2122 26.4497C29.4684 25.8308 29.6002 25.1674 29.6 24.4975C29.5999 23.8276 29.4677 23.1642 29.2112 22.5454C28.9547 21.9265 28.5788 21.3643 28.105 20.8907C27.6312 20.4171 27.0687 20.0415 26.4497 19.7853C25.8308 19.5291 25.1674 19.3973 24.4975 19.3975C23.1445 19.3978 21.8471 19.9356 20.8907 20.8925C19.9343 21.8494 19.3971 23.1471 19.3975 24.5C19.3978 25.853 19.9356 27.1504 20.8925 28.1068C21.8494 29.0632 23.1471 29.6004 24.5 29.6ZM30.62 19.145H33.6775C33.8806 19.145 34.0754 19.0645 34.2193 18.9211C34.3632 18.7777 34.4443 18.5831 34.445 18.38V15.3226C34.445 15.119 34.3642 14.9238 34.2202 14.7798C34.0763 14.6359 33.881 14.555 33.6775 14.555H30.62C30.4165 14.555 30.2212 14.6359 30.0773 14.7798C29.9333 14.9238 29.8525 15.119 29.8525 15.3226V18.38C29.855 18.8008 30.1993 19.145 30.62 19.145ZM24.5 0.0200195C18.0075 0.0200195 11.7809 2.59915 7.19005 7.19004C2.59915 11.7809 0.0200195 18.0075 0.0200195 24.5C0.0200195 30.9925 2.59915 37.2191 7.19005 41.81C11.7809 46.4009 18.0075 48.98 24.5 48.98C27.7148 48.98 30.8981 48.3468 33.8681 47.1166C36.8382 45.8864 39.5368 44.0832 41.81 41.81C44.0832 39.5368 45.8864 36.8382 47.1166 33.8681C48.3468 30.8981 48.98 27.7148 48.98 24.5C48.98 21.2853 48.3468 18.102 47.1166 15.1319C45.8864 12.1619 44.0832 9.46322 41.81 7.19004C39.5368 4.91687 36.8382 3.11368 33.8681 1.88345C30.8981 0.653214 27.7148 0.0200195 24.5 0.0200195ZM37.25 34.417C37.25 35.975 35.975 37.25 34.417 37.25H14.5831C13.025 37.25 11.75 35.975 11.75 34.417V14.5831C11.75 13.025 13.025 11.75 14.5831 11.75H34.417C35.975 11.75 37.25 13.025 37.25 14.5831V34.417Z" fill="white"/>
</svg>
