<svg width="152" height="255" viewBox="0 0 152 255" fill="none" xmlns="http://www.w3.org/2000/svg">
    <g clip-path="url(#clip0)">
        <path d="M7.22397 175.403C7.14898 175.303 7.09899 175.178 7.04899 175.053C6.72405 174.176 -0.749722 153.531 1.5749 133.513C4.19946 110.965 16.1725 102.972 16.6724 102.647C17.5973 102.045 18.8471 102.296 19.447 103.248C20.0469 104.2 19.7969 105.428 18.8471 106.029C18.7471 106.129 7.97384 113.495 5.57424 133.989C3.3496 153.08 10.7484 173.449 10.8234 173.675C11.1983 174.727 10.6734 175.88 9.62357 176.255C8.72372 176.581 7.69889 176.205 7.22397 175.403Z" fill="#593A26" />
        <path d="M151.126 96.8839H148.401C147.501 94.7293 146.376 92.6247 145.002 90.6705C137.403 79.5966 132.379 72.7819 130.279 59.6285C128.929 51.3106 121.755 45.1724 113.357 45.1724H49.2423C40.8187 45.1724 33.6699 51.2855 32.3201 59.6285C30.1955 72.7819 25.1963 79.5966 17.5975 90.6705C16.2478 92.6498 15.1229 94.7293 14.1981 96.8839H11.4985V114.697C11.5735 118.731 12.3484 122.79 13.8731 126.648C18.3474 138.148 28.5707 146.416 40.7437 148.345L44.5931 148.946C68.9391 152.83 93.735 152.83 118.056 148.946L121.905 148.345C134.078 146.416 144.302 138.148 148.776 126.648C150.276 122.79 151.051 118.731 151.151 114.697V96.8839H151.126Z" fill="#99603B" />
        <path d="M87.9112 23.5508C94.3994 23.5508 99.6592 18.2788 99.6592 11.7754C99.6592 5.27202 94.3994 0 87.9112 0C81.4229 0 76.1631 5.27202 76.1631 11.7754C76.1631 18.2788 81.4229 23.5508 87.9112 23.5508Z" fill="#C8B283" />
        <path d="M124.755 21.5713H37.844C29.5954 21.5713 22.8965 28.2858 22.8965 36.5536C22.8965 42.8672 26.121 48.7299 31.4201 52.1122L45.0678 60.8059H117.506L131.154 52.1122C136.453 48.7299 139.677 42.8672 139.677 36.5536C139.702 28.2858 133.028 21.5713 124.755 21.5713Z" fill="#E9CD95" />
        <path d="M113.357 32.8711H49.2671C40.8685 32.8711 33.6947 38.9843 32.3449 47.2772C30.2202 60.4556 25.2211 67.2703 17.5973 78.3692C11.0734 87.8647 9.69861 99.9658 13.8729 110.714C18.3472 122.214 28.5705 130.482 40.7435 132.411L44.5929 133.012C68.9389 136.895 93.7348 136.895 118.056 133.012L121.905 132.411C134.078 130.482 144.301 122.214 148.776 110.714C152.95 99.9909 151.55 87.8647 145.051 78.3692C137.453 67.2703 132.428 60.4806 130.304 47.2772C128.954 38.9592 121.755 32.8711 113.357 32.8711Z" fill="#AF6C45" />
        <path d="M74.7129 23.5508C81.2012 23.5508 86.461 18.2788 86.461 11.7754C86.461 5.27202 81.2012 0 74.7129 0C68.2246 0 62.9648 5.27202 62.9648 11.7754C62.9648 18.2788 68.2246 23.5508 74.7129 23.5508Z" fill="#E9CD95" />
        <path fill-rule="evenodd" clip-rule="evenodd" d="M73.9133 108.36C72.9634 107.833 72.1636 107.232 71.2137 107.107C68.7641 106.756 68.9141 110.138 69.7889 111.692C71.4887 114.748 74.6132 116.227 77.7126 116.176C80.8121 116.227 83.9366 114.723 85.6363 111.692C86.4862 110.138 86.6612 106.756 84.2116 107.107C83.2867 107.257 82.4619 107.833 81.512 108.36C80.3122 109.036 79.0124 109.337 77.7126 109.312C76.4129 109.337 75.1131 109.011 73.9133 108.36Z" fill="#590D32" />
        <path fill-rule="evenodd" clip-rule="evenodd" d="M51.767 118.206C56.5662 118.206 60.4906 117.204 60.4906 115.951C60.4906 114.723 56.5662 113.696 51.767 113.696C46.9678 113.696 43.0435 114.698 43.0435 115.951C43.0435 117.179 46.9678 118.206 51.767 118.206Z" fill="#EE8289" />
        <path fill-rule="evenodd" clip-rule="evenodd" d="M103.658 118.206C108.457 118.206 112.382 117.204 112.382 115.951C112.382 114.723 108.457 113.696 103.658 113.696C98.8589 113.696 94.9346 114.698 94.9346 115.951C94.9346 117.179 98.8339 118.206 103.658 118.206Z" fill="#EE8289" />
        <path fill-rule="evenodd" clip-rule="evenodd" d="M48.8672 95.281C48.8672 94.2037 47.9924 93.3018 46.8926 93.3018C45.8177 93.3018 44.9429 94.1786 44.9429 95.281C44.9429 98.1372 46.0927 100.693 47.9424 102.572C49.7921 104.426 52.3667 105.578 55.2162 105.578C58.0657 105.578 60.6153 104.426 62.49 102.572C64.3397 100.718 65.5145 98.1372 65.5145 95.281C65.5145 94.2037 64.6396 93.3018 63.5398 93.3018C62.465 93.3018 61.5651 94.1786 61.5651 95.281C61.5651 97.0348 60.8403 98.6383 59.6904 99.7908C58.5406 100.943 56.9409 101.645 55.1912 101.645C53.4415 101.645 51.8417 100.943 50.6919 99.7908C49.5671 98.6383 48.8672 97.0348 48.8672 95.281Z" fill="#590D32" />
        <path fill-rule="evenodd" clip-rule="evenodd" d="M93.835 95.281C93.835 94.2037 92.9601 93.3018 91.8603 93.3018C90.7855 93.3018 89.9106 94.1786 89.9106 95.281C89.9106 98.1372 91.0604 100.693 92.9101 102.572C94.7598 104.426 97.3344 105.578 100.184 105.578C103.033 105.578 105.583 104.426 107.458 102.572C109.307 100.718 110.482 98.1372 110.482 95.281C110.482 94.2037 109.607 93.3018 108.508 93.3018C107.433 93.3018 106.533 94.1786 106.533 95.281C106.533 97.0348 105.833 98.6383 104.658 99.7908C103.508 100.943 101.909 101.645 100.159 101.645C98.4092 101.645 96.8095 100.943 95.6597 99.7908C94.5349 98.6383 93.835 97.0348 93.835 95.281Z" fill="#590D32" />
        <path d="M137.852 172.798C137.502 172.798 137.177 172.723 136.853 172.522C135.878 171.971 135.553 170.743 136.103 169.766C136.203 169.566 146.901 150.675 147.876 131.534C148.926 110.889 139.527 101.82 139.427 101.744C138.627 100.993 138.577 99.7151 139.327 98.8883C140.077 98.0615 141.352 98.0114 142.152 98.763C142.602 99.1639 153.05 109.06 151.9 131.734C150.875 151.878 140.052 170.969 139.602 171.77C139.227 172.422 138.552 172.798 137.852 172.798Z" fill="#593A26" />
        <path d="M9.32361 196.198C9.49858 196.975 9.72354 197.827 10.3734 198.278C11.0233 198.729 12.1981 198.378 12.1731 197.576C12.7231 198.629 13.4479 199.706 14.5727 200.007C15.7226 200.307 17.1223 199.105 16.5974 198.078C16.9474 198.579 17.2973 199.08 17.8222 199.355C18.3471 199.631 19.072 199.631 19.4469 199.18C19.6719 198.904 19.7219 198.528 19.7719 198.153C20.0718 195.397 19.9719 192.591 19.4469 189.86C20.0219 190.762 20.6467 191.714 21.5466 192.315C22.4465 192.916 23.7212 193.067 24.5711 192.415C25.446 191.739 25.5709 190.411 25.171 189.384C24.7711 188.357 23.9462 187.555 23.1463 186.803C20.0468 183.872 16.7974 181.066 14.2228 177.684C11.5482 174.151 9.49858 169.441 8.19879 164.305C3.12463 165.808 6.27411 174.477 6.59906 178.235C7.12397 184.223 8.02382 190.261 9.32361 196.198Z" fill="#593A26" />
        <path d="M140.402 184.147C140.177 184.923 139.902 185.75 139.227 186.151C138.552 186.552 137.402 186.126 137.477 185.349C136.877 186.352 136.077 187.404 134.928 187.629C133.778 187.855 132.428 186.577 133.028 185.575C132.653 186.051 132.278 186.527 131.728 186.777C131.203 187.028 130.453 186.978 130.103 186.502C129.878 186.201 129.853 185.825 129.853 185.45C129.728 182.669 130.003 179.888 130.703 177.182C130.053 178.059 129.404 178.961 128.454 179.487C127.504 180.013 126.229 180.113 125.429 179.386C124.604 178.66 124.554 177.307 125.029 176.305C125.504 175.303 126.379 174.551 127.229 173.85C130.503 171.144 133.928 168.538 136.702 165.306C139.577 161.949 141.926 157.389 143.576 152.328C148.55 154.157 144.851 162.6 144.276 166.308C143.351 172.346 142.051 178.284 140.402 184.147Z" fill="#593A26" />
        <path d="M6.59852 246.932C6.77349 246.932 6.94846 246.907 7.12344 246.882C8.87315 246.607 10.073 244.928 9.798 243.174C9.748 242.999 20.4462 187.003 24.3706 172.572C28.4449 157.565 59.9148 145.213 59.9897 145.113C61.0896 143.71 60.8646 141.68 59.4648 140.578C58.0651 139.476 56.0404 139.701 54.9406 141.104C54.6156 141.505 22.5959 154.508 18.1466 170.868C13.8473 186.677 3.27407 243.425 3.39905 244.201C3.674 245.805 5.02378 246.932 6.59852 246.932Z" fill="#593A26" />
        <path d="M9.17336 242.197C9.17336 242.197 13.8476 242.072 17.572 243.726C21.3464 245.404 24.1959 248.912 24.0959 250.19C23.9209 252.72 0.249823 253.622 -0.000136077 250.039C-0.250095 246.457 4.44913 241.446 4.44913 241.446L9.17336 242.197Z" fill="#593A26" />
        <path d="M53.2161 250.015C53.3911 250.015 53.566 249.99 53.741 249.965C55.4907 249.689 56.6905 248.01 56.4156 246.257C56.3906 246.081 67.0888 190.11 71.0132 175.679C75.0875 160.672 106.557 148.295 106.632 148.22C107.732 146.817 107.507 144.788 106.107 143.685C104.708 142.583 102.683 142.808 101.583 144.211C101.233 144.637 69.2385 157.64 64.7892 174.001C60.4899 189.81 49.9166 246.557 50.0416 247.334C50.2916 248.887 51.6664 250.015 53.2161 250.015Z" fill="#593A26" />
        <path d="M50.0413 244.778C50.0413 244.778 45.3671 244.653 41.6427 246.306C37.8683 247.985 35.0188 251.492 35.1188 252.77C35.2937 255.301 58.9648 256.203 59.2148 252.62C59.4648 249.037 54.7655 244.026 54.7655 244.026L50.0413 244.778Z" fill="#593A26" />
    </g>
    <defs>
        <clipPath id="clip0">
            <rect width="152" height="255" fill="white" />
        </clipPath>
    </defs>
</svg>
