<svg width="95" height="95" viewBox="0 0 95 95" fill="none" xmlns="http://www.w3.org/2000/svg">
    <path d="M47.5 0C21.375 0 0 19.3958 0 43.3438C0 67.2917 21.375 86.6875 47.5 86.6875C53.0417 86.6875 58.7812 85.6979 64.125 83.9167C64.7188 83.7188 65.5104 83.9167 65.9062 84.3125C69.8646 89.6562 76 93.4167 82.7292 95L83.7188 94.6042V93.4167C81.1268 90.0341 79.7888 85.8569 79.9332 81.5978C80.0776 77.3388 81.6953 73.2618 84.5104 70.0625C90.6458 62.7396 95 53.4375 95 43.3438C95 19.3958 73.4271 0 47.5 0ZM47.3021 20.5833C47.8958 20.5833 48.4896 20.9792 48.6875 21.5729L53.6354 35.625L68.875 36.0208C69.4688 36.0208 70.0625 36.4167 70.2604 36.8125C70.4583 37.4062 70.2604 38 69.6667 38.3958L57.5938 47.5L61.9479 61.75C62.1458 62.3438 61.9479 62.9375 61.3542 63.3333H59.7708L47.3021 54.8229L34.8333 63.3333H33.25C32.6562 62.9375 32.4583 62.3438 32.6562 61.75L37.0104 47.5L24.9375 38.3958C24.3438 38 24.1458 37.4062 24.3438 36.8125C24.5417 36.4167 25.1354 36.0208 25.7292 36.0208L40.9688 35.625L45.9167 21.5729C46.1146 20.9792 46.7083 20.5833 47.3021 20.5833Z" fill="current" />
</svg>
