<svg width="14" height="14" viewBox="0 0 14 14" fill="none" xmlns="http://www.w3.org/2000/svg">
<path d="M8.01837 7.00035L13.2834 1.73535C13.4017 1.59719 13.4635 1.41947 13.4565 1.2377C13.4495 1.05594 13.3741 0.883513 13.2455 0.754889C13.1169 0.626265 12.9445 0.550914 12.7627 0.543893C12.5809 0.536872 12.4032 0.598699 12.265 0.717018L7.00003 5.98202L1.73504 0.709796C1.59687 0.591477 1.41915 0.529651 1.23739 0.536671C1.05562 0.543692 0.883197 0.619043 0.754573 0.747667C0.625949 0.876291 0.550598 1.04871 0.543577 1.23048C0.536556 1.41225 0.598383 1.58997 0.716702 1.72813L5.9817 7.00035L0.70948 12.2654C0.633876 12.3301 0.572473 12.4098 0.529122 12.4994C0.485772 12.589 0.461411 12.6866 0.457569 12.786C0.453728 12.8855 0.470487 12.9847 0.506797 13.0774C0.543106 13.17 0.598182 13.2542 0.668566 13.3246C0.73895 13.395 0.823123 13.4501 0.915802 13.4864C1.00848 13.5227 1.10767 13.5394 1.20713 13.5356C1.30659 13.5318 1.40419 13.5074 1.49379 13.464C1.58339 13.4207 1.66307 13.3593 1.72781 13.2837L7.00003 8.01868L12.265 13.2837C12.4032 13.402 12.5809 13.4638 12.7627 13.4568C12.9445 13.4498 13.1169 13.3744 13.2455 13.2458C13.3741 13.1172 13.4495 12.9448 13.4565 12.763C13.4635 12.5812 13.4017 12.4035 13.2834 12.2654L8.01837 7.00035Z" fill="#343434"/>
</svg>
