<svg width="30" height="30" viewBox="0 0 30 30" fill="none" xmlns="http://www.w3.org/2000/svg">
<path d="M0.375 15C0.375 23.0768 6.9232 29.625 15 29.625C23.0768 29.625 29.625 23.0768 29.625 15C29.625 6.9232 23.0768 0.375 15 0.375C6.9232 0.375 0.375 6.9232 0.375 15ZM7.125 19.6877C7.5082 15.367 9.52547 11.4548 15.7643 11.4548V8.83078C15.7654 8.71725 15.7995 8.60648 15.8624 8.51199C15.9254 8.4175 16.0145 8.34337 16.1188 8.29864C16.2232 8.25392 16.3383 8.24053 16.4501 8.26011C16.562 8.27969 16.6657 8.33139 16.7487 8.40891L22.6936 14.0156C22.7508 14.0695 22.7965 14.1346 22.8276 14.2068C22.8588 14.279 22.8749 14.3568 22.8749 14.4354C22.8749 14.514 22.8588 14.5918 22.8276 14.664C22.7965 14.7362 22.7508 14.8013 22.6936 14.8552L16.7578 20.464C16.6749 20.5415 16.5711 20.5932 16.4593 20.6128C16.3474 20.6324 16.2323 20.619 16.128 20.5742C16.0236 20.5295 15.9345 20.4554 15.8716 20.3609C15.8086 20.2664 15.7745 20.1556 15.7734 20.0421V17.4202C11.7607 17.4202 9.83133 18.3673 8.13891 20.1398C7.75289 20.5371 7.0793 20.2327 7.125 19.6877Z" fill="white"/>
</svg>
