<svg width="51" height="51" viewBox="0 0 51 51" fill="none" xmlns="http://www.w3.org/2000/svg">
<path d="M25.5 0C11.4167 0 0 11.4167 0 25.5C0 39.5833 11.4167 51 25.5 51C39.5833 51 51 39.5833 51 25.5C51 11.4167 39.5833 0 25.5 0ZM12.4512 15.6356H38.5488V19.3056L25.5 26.7451L12.4512 19.3055V15.6356ZM12.4512 21.6526L19.097 25.4409L12.4512 32.4073V21.6526ZM38.5488 21.6526V32.4073L31.903 25.4408L38.5488 21.6526ZM20.9242 26.4837L25.5 29.0921L30.0758 26.4836L38.5488 35.3644H12.4512L20.9242 26.4837Z" fill="white"/>
</svg>
