<svg width="51" height="51" viewBox="0 0 51 51" fill="none" xmlns="http://www.w3.org/2000/svg">
    <circle cx="25.5" cy="25.5" r="25.5" fill="white" />
    <g clip-path="url(#clip0)">
        <path d="M14.8363 8.65421L15.4595 7.58599C15.2716 7.47635 15.0581 7.41823 14.8405 7.41749C14.623 7.41675 14.4091 7.47342 14.2205 7.58179C14.0318 7.69015 13.8751 7.84637 13.7662 8.03466C13.6572 8.22296 13.5999 8.43667 13.6 8.65421H14.8363ZM14.8363 43.2724H13.6C13.5999 43.4899 13.6572 43.7036 13.7662 43.8919C13.8751 44.0802 14.0318 44.2365 14.2205 44.3448C14.4091 44.4532 14.623 44.5099 14.8405 44.5091C15.0581 44.5084 15.2716 44.4503 15.4595 44.3406L14.8363 43.2724ZM44.5091 25.9633L45.1322 27.0315C45.319 26.9227 45.4739 26.7668 45.5817 26.5793C45.6894 26.3919 45.7461 26.1795 45.7461 25.9633C45.7461 25.7471 45.6894 25.5347 45.5817 25.3473C45.4739 25.1598 45.319 25.0039 45.1322 24.8951L44.5091 25.9633ZM13.6 8.65421V43.2724H16.0727V8.65421H13.6ZM15.4595 44.3406L45.1322 27.0315L43.8859 24.8951L14.2132 42.2042L15.4595 44.3406ZM45.1322 24.8951L15.4595 7.58599L14.2132 9.72243L43.8859 27.0315L45.1322 24.8951ZM15.6499 39.2567L35.4317 21.9476L33.8046 20.0881L14.0228 37.3972L15.6499 39.2567ZM14.0228 14.5294L33.8046 31.8385L35.4317 29.979L15.6499 12.6699L14.0228 14.5294Z" fill="#33787B" />
    </g>
    <defs>
        <clipPath id="clip0">
            <rect width="37.0909" height="37.0909" fill="white" transform="translate(11.1273 7.41797)" />
        </clipPath>
    </defs>
</svg>
