<svg width="95" height="95" viewBox="0 0 95 95" fill="none" xmlns="http://www.w3.org/2000/svg">
    <path fill-rule="evenodd" clip-rule="evenodd" d="M35.2224 5.16678C36.8206 3.53124 38.7296 2.23164 40.8372 1.34436C42.9448 0.457073 45.2085 0 47.4952 0C49.782 0 52.0457 0.457073 54.1533 1.34436C56.2608 2.23164 58.1698 3.53124 59.768 5.16678L63.4612 8.95491L68.7455 8.8896C71.033 8.86252 73.3027 9.2931 75.4213 10.156C77.5399 11.0189 79.4646 12.2967 81.0821 13.9143C82.6997 15.5318 83.9775 17.4565 84.8404 19.5751C85.7033 21.6937 86.1339 23.9634 86.1068 26.2508L86.0474 31.5352L89.8237 35.2283C91.4592 36.8265 92.7588 38.7355 93.6461 40.8431C94.5334 42.9507 94.9904 45.2144 94.9904 47.5012C94.9904 49.7879 94.5334 52.0516 93.6461 54.1592C92.7588 56.2668 91.4592 58.1758 89.8237 59.774L86.0415 63.4671L86.1068 68.7515C86.1339 71.0389 85.7033 73.3086 84.8404 75.4272C83.9775 77.5458 82.6997 79.4705 81.0821 81.0881C79.4646 82.7056 77.5399 83.9834 75.4213 84.8463C73.3027 85.7092 71.033 86.1398 68.7455 86.1127L63.4612 86.0533L59.768 89.8296C58.1698 91.4651 56.2608 92.7647 54.1533 93.652C52.0457 94.5393 49.782 94.9964 47.4952 94.9964C45.2085 94.9964 42.9448 94.5393 40.8372 93.652C38.7296 92.7647 36.8206 91.4651 35.2224 89.8296L31.5293 86.0474L26.2449 86.1127C23.9575 86.1398 21.6877 85.7092 19.5692 84.8463C17.4506 83.9834 15.5259 82.7056 13.9083 81.0881C12.2908 79.4705 11.013 77.5458 10.1501 75.4272C9.28716 73.3086 8.85659 71.0389 8.88366 68.7515L8.94303 63.4671L5.16678 59.774C3.53124 58.1758 2.23164 56.2668 1.34436 54.1592C0.457073 52.0516 0 49.7879 0 47.5012C0 45.2144 0.457073 42.9507 1.34436 40.8431C2.23164 38.7355 3.53124 36.8265 5.16678 35.2283L8.94897 31.5352L8.88366 26.2508C8.85659 23.9634 9.28716 21.6937 10.1501 19.5751C11.013 17.4565 12.2908 15.5318 13.9083 13.9143C15.5259 12.2967 17.4506 11.0189 19.5692 10.156C21.6877 9.2931 23.9575 8.86252 26.2449 8.8896L31.5293 8.94897L35.2224 5.17272V5.16678ZM41.5696 65.3137C41.5696 64.5339 41.7232 63.7618 42.0216 63.0415C42.3199 62.3211 42.7573 61.6666 43.3087 61.1152C43.86 60.5639 44.5145 60.1265 45.2349 59.8281C45.9553 59.5297 46.7274 59.3762 47.5071 59.3762C48.2868 59.3762 49.0589 59.5297 49.7793 59.8281C50.4996 60.1265 51.1542 60.5639 51.7055 61.1152C52.2569 61.6666 52.6942 62.3211 52.9926 63.0415C53.291 63.7618 53.4446 64.5339 53.4446 65.3137C53.4446 66.8884 52.819 68.3986 51.7055 69.5121C50.592 70.6256 49.0818 71.2512 47.5071 71.2512C45.9324 71.2512 44.4221 70.6256 43.3087 69.5121C42.1952 68.3986 41.5696 66.8884 41.5696 65.3137ZM51.0815 53.2783C50.7846 55.5702 49.7871 57.0012 47.7921 57.0012C45.5537 57.0012 44.3187 55.119 44.3187 52.5777V51.9246C44.3187 47.608 46.1415 44.7521 49.8168 42.1812C53.4624 39.5687 54.6974 37.6568 54.6974 34.314C54.6974 30.5258 52.2037 27.8777 48.5818 27.8777C45.3162 27.8777 43.143 29.7955 42.2049 33.3046C41.5577 35.4659 40.4712 36.3327 38.8562 36.3327C36.8255 36.3387 35.6202 34.8721 35.6202 32.5387C35.6202 31.0483 35.8874 29.7599 36.4455 28.4418C38.2683 23.7037 42.8521 20.7824 48.9083 20.7824C56.8705 20.7824 62.339 26.138 62.339 34.0052C62.339 39.3252 60.1065 42.9768 56.1046 45.7971C52.2571 48.4393 51.319 50.1077 51.0815 53.2783Z" fill="current" />
</svg>
