<svg width="95" height="95" viewBox="0 0 95 95" fill="none" xmlns="http://www.w3.org/2000/svg">
    <path d="M84.3591 10.5556C87.3276 10.5556 89.8426 11.4719 91.904 13.3045C93.9655 15.137 94.9962 17.3728 94.9962 20.0116V85.5441C94.9962 88.183 93.9655 90.4187 91.904 92.2512C89.8426 94.0838 87.3276 95.0001 84.3591 95.0001H10.6409C7.67233 95.0001 5.15734 94.0838 3.09587 92.2512C1.0344 90.4187 0.00366211 88.183 0.00366211 85.5441V20.0116C0.00366211 17.3728 1.0344 15.137 3.09587 13.3045C5.15734 11.4719 7.67233 10.5556 10.6409 10.5556H32.6574C33.8118 7.77013 35.7496 5.49776 38.4707 3.7385C41.1919 1.97924 44.2016 1.09961 47.5 1.09961C50.7983 1.09961 53.8081 1.97924 56.5292 3.7385C59.2503 5.49776 61.1881 7.77013 62.3425 10.5556H84.3591ZM47.5 10.5556C46.0157 10.5556 44.7788 11.0321 43.7893 11.985C42.7998 12.938 42.305 14.0375 42.305 15.2836C42.305 16.5298 42.7998 17.6293 43.7893 18.5823C44.7788 19.5352 46.0157 20.0116 47.5 20.0116C48.9842 20.0116 50.2211 19.5352 51.2106 18.5823C52.2001 17.6293 52.6949 16.5298 52.6949 15.2836C52.6949 14.0375 52.2001 12.938 51.2106 11.985C50.2211 11.0321 48.9842 10.5556 47.5 10.5556ZM68.527 66.8519V48.1598H47.5V34.0857L21.0307 57.3959L47.5 80.926V66.8519H68.527Z" fill="current" />
</svg>
