<svg width="209" height="200" viewBox="0 0 209 200" fill="none" xmlns="http://www.w3.org/2000/svg">
<path d="M175.003 158.333C175.003 156.076 175.828 154.123 177.477 152.474C179.127 150.825 181.08 150 183.337 150C185.68 150 187.655 150.825 189.261 152.474C190.867 154.123 191.67 156.076 191.67 158.333C191.67 160.677 190.867 162.652 189.261 164.258C187.655 165.864 185.68 166.667 183.337 166.667C181.08 166.667 179.127 165.864 177.477 164.258C175.828 162.652 175.003 160.677 175.003 158.333ZM154.17 91.6667V175C154.17 177.257 154.995 179.21 156.644 180.859C158.293 182.509 160.246 183.333 162.503 183.333H200.003C202.26 183.333 204.213 182.509 205.863 180.859C207.512 179.21 208.337 177.257 208.337 175V91.6667C208.337 89.4097 207.512 87.4566 205.863 85.8073C204.213 84.158 202.26 83.3333 200.003 83.3333H162.503C160.246 83.3333 158.293 84.158 156.644 85.8073C154.995 87.4566 154.17 89.4097 154.17 91.6667ZM0.00334167 91.6667C0.00334167 99.1319 2.3905 105.599 7.16481 111.068C5.86272 114.887 5.21169 118.186 5.21169 120.964C4.95126 127.561 6.81758 133.507 10.8106 138.802C9.33495 143.663 9.33495 148.741 10.8106 154.036C12.1127 158.984 14.4565 163.064 17.8419 166.276C17.0606 175.998 19.1874 183.854 24.2221 189.844C29.7776 196.441 38.328 199.826 49.8731 200H66.67C72.3992 200 78.6492 199.327 85.42 197.982C92.1908 196.636 97.4643 195.378 101.24 194.206C105.016 193.034 110.246 191.319 116.93 189.062C127.608 185.33 134.465 183.42 137.503 183.333C139.76 183.247 141.713 182.4 143.363 180.794C145.012 179.188 145.837 177.257 145.837 175V91.5365C145.837 89.3663 145.055 87.4783 143.493 85.8724C141.93 84.2665 140.064 83.3767 137.894 83.2031C135.811 83.0295 132.512 80.4688 127.998 75.5208C123.484 70.5729 119.101 65.3212 114.847 59.7656C108.944 52.2135 104.561 47.0052 101.696 44.1406C100.134 42.5781 98.7881 40.4948 97.6596 37.8906C96.5311 35.2865 95.7716 33.1814 95.3809 31.5755C94.9903 29.9696 94.4044 27.3437 93.6231 23.6979C93.0155 20.3125 92.473 17.6649 91.9955 15.7552C91.5181 13.8455 90.6717 11.5885 89.4565 8.98438C88.2412 6.38021 86.7655 4.21007 85.0294 2.47396C83.3801 0.824653 81.427 0 79.17 0C75.177 0 71.5962 0.455729 68.4278 1.36719C65.2594 2.27865 62.6553 3.40712 60.6153 4.7526C58.5754 6.09809 56.8393 7.8559 55.407 10.026C53.9747 12.1962 52.933 14.1493 52.282 15.8854C51.631 17.6215 51.1101 19.7917 50.7195 22.3958C50.3289 25 50.1118 26.9531 50.0685 28.2552C50.025 29.5573 50.0033 31.25 50.0033 33.3333C50.0033 36.6319 50.4157 39.9306 51.2403 43.2292C52.065 46.5278 52.8896 49.1319 53.7143 51.0417C54.5389 52.9514 55.7325 55.3819 57.295 58.3333C57.5554 58.8542 57.9895 59.6354 58.5971 60.6771C59.2047 61.7187 59.6822 62.6736 60.0294 63.5417C60.3766 64.4097 60.7238 65.4514 61.071 66.6667H25.0033C18.2325 66.6667 12.3731 69.1406 7.42522 74.0885C2.47731 79.0365 0.00334167 84.8958 0.00334167 91.6667Z" fill="#2A5E61"/>
</svg>
