<svg width="209" height="200" viewBox="0 0 209 200" fill="none" xmlns="http://www.w3.org/2000/svg">
<path d="M33.3368 41.6667C33.3368 43.9236 32.5121 45.8767 30.8628 47.526C29.2135 49.1754 27.2604 50 25.0034 50C22.6597 50 20.6848 49.1754 19.0789 47.526C17.473 45.8767 16.6701 43.9236 16.6701 41.6667C16.6701 39.3229 17.473 37.3481 19.0789 35.7422C20.6848 34.1363 22.6597 33.3333 25.0034 33.3333C27.2604 33.3333 29.2135 34.1363 30.8628 35.7422C32.5121 37.3481 33.3368 39.3229 33.3368 41.6667ZM54.1701 108.333V25C54.1701 22.7431 53.3454 20.7899 51.6961 19.1406C50.0468 17.4913 48.0937 16.6667 45.8368 16.6667H8.33675C6.07981 16.6667 4.12668 17.4913 2.47738 19.1406C0.828071 20.7899 0.00341797 22.7431 0.00341797 25V108.333C0.00341797 110.59 0.828071 112.543 2.47738 114.193C4.12668 115.842 6.07981 116.667 8.33675 116.667H45.8368C48.0937 116.667 50.0468 115.842 51.6961 114.193C53.3454 112.543 54.1701 110.59 54.1701 108.333ZM208.337 108.333C208.337 100.868 205.95 94.401 201.175 88.9323C202.477 85.1129 203.128 81.8142 203.128 79.0365C203.389 72.4392 201.523 66.4931 197.529 61.1979C199.005 56.3368 199.005 51.2587 197.529 45.9635C196.227 41.0156 193.884 36.9358 190.498 33.724C191.279 24.0017 189.153 16.1458 184.118 10.1562C178.562 3.55904 170.012 0.173615 158.467 0H141.67C135.941 0 129.691 0.672745 122.92 2.01823C116.149 3.36372 110.876 4.62241 107.1 5.79428C103.324 6.96616 98.0937 8.68056 91.4097 10.9375C80.7326 14.6702 73.8749 16.5799 70.8367 16.6667C68.5798 16.7535 66.6267 17.5998 64.9774 19.2057C63.3281 20.8116 62.5034 22.7431 62.5034 25V108.464C62.5034 110.634 63.2847 112.522 64.8472 114.128C66.4097 115.734 68.276 116.623 70.4461 116.797C72.5295 116.97 75.8281 119.531 80.342 124.479C84.8558 129.427 89.2395 134.679 93.493 140.234C99.3958 147.786 103.779 152.995 106.644 155.859C108.207 157.422 109.552 159.505 110.68 162.109C111.809 164.714 112.569 166.819 112.959 168.424C113.35 170.03 113.936 172.656 114.717 176.302C115.325 179.688 115.867 182.335 116.345 184.245C116.822 186.155 117.668 188.411 118.884 191.016C120.099 193.62 121.575 195.79 123.311 197.526C124.96 199.175 126.913 200 129.17 200C133.163 200 136.744 199.544 139.912 198.633C143.081 197.721 145.685 196.593 147.725 195.247C149.765 193.902 151.501 192.144 152.933 189.974C154.365 187.804 155.407 185.851 156.058 184.115C156.709 182.378 157.23 180.208 157.621 177.604C158.011 175 158.228 173.047 158.272 171.745C158.315 170.443 158.337 168.75 158.337 166.667C158.337 163.368 157.924 160.069 157.1 156.771C156.275 153.472 155.45 150.868 154.626 148.958C153.801 147.049 152.608 144.618 151.045 141.667C150.785 141.146 150.351 140.365 149.743 139.323C149.135 138.281 148.658 137.326 148.311 136.458C147.963 135.59 147.616 134.549 147.269 133.333H183.337C190.108 133.333 195.967 130.859 200.915 125.911C205.863 120.964 208.337 115.104 208.337 108.333Z" fill="#CC071E"/>
</svg>
